<svg width="76" height="66" viewBox="0 0 76 66" fill="none" xmlns="http://www.w3.org/2000/svg">
<g clip-path="url(#clip0_21_2715)">
<path d="M0.75 12.4375C0.75 10.1904 3.14397 8.375 6.10714 8.375H70.3929C73.356 8.375 75.75 10.1904 75.75 12.4375C75.75 14.6846 73.356 16.5 70.3929 16.5H6.10714C3.14397 16.5 0.75 14.6846 0.75 12.4375ZM0.75 32.75C0.75 30.5029 3.14397 28.6875 6.10714 28.6875H70.3929C73.356 28.6875 75.75 30.5029 75.75 32.75C75.75 34.9971 73.356 36.8125 70.3929 36.8125H6.10714C3.14397 36.8125 0.75 34.9971 0.75 32.75ZM75.75 53.0625C75.75 55.3096 73.356 57.125 70.3929 57.125H6.10714C3.14397 57.125 0.75 55.3096 0.75 53.0625C0.75 50.8154 3.14397 49 6.10714 49H70.3929C73.356 49 75.75 50.8154 75.75 53.0625Z" fill="#555555"/>
</g>
<defs>
<clipPath id="clip0_21_2715">
<rect width="75" height="65" fill="white" transform="translate(0.75 0.25)"/>
</clipPath>
</defs>
</svg>
