<svg width="76" height="66" viewBox="0 0 76 66" fill="none" xmlns="http://www.w3.org/2000/svg">
<g clip-path="url(#clip0_21_2682)">
<path d="M16.3214 4.3125V8.375H8.28571C3.84933 8.375 0.25 11.1045 0.25 14.4688V20.5625H75.25V14.4688C75.25 11.1045 71.6507 8.375 67.2143 8.375H59.1786V4.3125C59.1786 2.06543 56.7846 0.25 53.8214 0.25C50.8583 0.25 48.4643 2.06543 48.4643 4.3125V8.375H27.0357V4.3125C27.0357 2.06543 24.6417 0.25 21.6786 0.25C18.7154 0.25 16.3214 2.06543 16.3214 4.3125ZM75.25 24.625H0.25V59.1562C0.25 62.5205 3.84933 65.25 8.28571 65.25H67.2143C71.6507 65.25 75.25 62.5205 75.25 59.1562V24.625Z" fill="#555555"/>
</g>
<defs>
<clipPath id="clip0_21_2682">
<rect width="75" height="65" fill="white" transform="translate(0.25 0.25)"/>
</clipPath>
</defs>
</svg>
