<svg width="76" height="66" viewBox="0 0 76 66" fill="none" xmlns="http://www.w3.org/2000/svg">
<g clip-path="url(#clip0_21_2659)">
<path d="M20.5547 15.1543L16.7314 24.625H59.7686L55.9453 15.1543C55.2861 13.5293 53.5137 12.4375 51.5215 12.4375H24.9785C22.9863 12.4375 21.2139 13.5293 20.5547 15.1543ZM6.55078 25.2344L11.707 12.4756C13.6846 7.58789 19.002 4.3125 24.9785 4.3125H51.5215C57.498 4.3125 62.8154 7.58789 64.793 12.4756L69.9492 25.2344C73.3477 26.4531 75.75 29.3604 75.75 32.75V51.0312V57.125C75.75 59.3721 73.6553 61.1875 71.0625 61.1875H66.375C63.7822 61.1875 61.6875 59.3721 61.6875 57.125V51.0312H14.8125V57.125C14.8125 59.3721 12.7178 61.1875 10.125 61.1875H5.4375C2.84473 61.1875 0.75 59.3721 0.75 57.125V51.0312V32.75C0.75 29.3604 3.15234 26.4531 6.55078 25.2344ZM19.5 36.8125C19.5 35.7351 19.0061 34.7017 18.1271 33.9399C17.248 33.178 16.0557 32.75 14.8125 32.75C13.5693 32.75 12.377 33.178 11.4979 33.9399C10.6189 34.7017 10.125 35.7351 10.125 36.8125C10.125 37.8899 10.6189 38.9233 11.4979 39.6851C12.377 40.447 13.5693 40.875 14.8125 40.875C16.0557 40.875 17.248 40.447 18.1271 39.6851C19.0061 38.9233 19.5 37.8899 19.5 36.8125ZM61.6875 40.875C62.9307 40.875 64.123 40.447 65.0021 39.6851C65.8811 38.9233 66.375 37.8899 66.375 36.8125C66.375 35.7351 65.8811 34.7017 65.0021 33.9399C64.123 33.178 62.9307 32.75 61.6875 32.75C60.4443 32.75 59.252 33.178 58.3729 33.9399C57.4939 34.7017 57 35.7351 57 36.8125C57 37.8899 57.4939 38.9233 58.3729 39.6851C59.252 40.447 60.4443 40.875 61.6875 40.875Z" fill="#555555"/>
</g>
<defs>
<clipPath id="clip0_21_2659">
<rect width="75" height="65" fill="white" transform="translate(0.75 0.25)"/>
</clipPath>
</defs>
</svg>
