<svg width="865" height="610" viewBox="0 0 865 610" fill="none" xmlns="http://www.w3.org/2000/svg">
<path d="M398.454 148.024H307.421V436.674H398.454V148.024Z" fill="#F5F5F5"/>
<path d="M398.454 148.024H352.943V435.877H398.454V148.024Z" fill="#EBEBEB"/>
<path d="M349.967 119.693H317.824V148.035H349.967V119.693Z" fill="#F5F5F5"/>
<path d="M349.956 119.693H342.298V148.035H349.956V119.693Z" fill="#EBEBEB"/>
<path d="M299.844 148.024V146.373H401.118V148.024" fill="#E0E0E0"/>
<path d="M333.094 160.383H325.39V176.643H333.094V160.383Z" fill="#FAFAFA"/>
<path d="M352.92 183.024C352.92 183.198 342.725 183.336 330.165 183.336C317.605 183.336 307.398 183.198 307.398 183.024C307.398 182.851 317.593 182.713 330.165 182.713C342.736 182.713 352.92 182.851 352.92 183.024Z" fill="#E0E0E0"/>
<path d="M379.008 160.383H371.304V176.643H379.008V160.383Z" fill="#E0E0E0"/>
<path d="M398.846 183.024C398.846 183.198 388.662 183.336 376.09 183.336C363.519 183.336 353.335 183.198 353.335 183.024C353.335 182.851 363.519 182.713 376.09 182.713C388.662 182.713 398.846 182.851 398.846 183.024Z" fill="#E0E0E0"/>
<path d="M379.008 192.66H371.304V208.92H379.008V192.66Z" fill="#E0E0E0"/>
<path d="M398.846 215.302C398.846 215.463 388.662 215.613 376.09 215.613C363.519 215.613 353.335 215.463 353.335 215.302C353.335 215.14 363.519 214.99 376.09 214.99C388.662 214.99 398.846 215.129 398.846 215.302Z" fill="#E0E0E0"/>
<path d="M379.008 225.907H371.304V242.167H379.008V225.907Z" fill="#E0E0E0"/>
<path d="M398.846 248.549C398.846 248.722 388.662 248.86 376.09 248.86C363.519 248.86 353.335 248.722 353.335 248.549C353.335 248.375 363.519 248.237 376.09 248.237C388.662 248.237 398.846 248.375 398.846 248.549Z" fill="#E0E0E0"/>
<path d="M379.008 259.154H371.304V275.414H379.008V259.154Z" fill="#E0E0E0"/>
<path d="M398.846 281.795C398.846 281.968 388.662 282.107 376.09 282.107C363.519 282.107 353.335 281.968 353.335 281.795C353.335 281.622 363.519 281.484 376.09 281.484C388.662 281.484 398.846 281.576 398.846 281.795Z" fill="#E0E0E0"/>
<path d="M379.008 291.454H371.304V307.714H379.008V291.454Z" fill="#E0E0E0"/>
<path d="M398.846 314.096C398.846 314.269 388.662 314.407 376.09 314.407C363.519 314.407 353.335 314.269 353.335 314.096C353.335 313.923 363.519 313.784 376.09 313.784C388.662 313.784 398.846 313.888 398.846 314.096Z" fill="#E0E0E0"/>
<path d="M379.008 323.882H371.304V340.141H379.008V323.882Z" fill="#E0E0E0"/>
<path d="M379.008 356.736H371.304V372.996H379.008V356.736Z" fill="#E0E0E0"/>
<path d="M398.846 346.523C398.846 346.696 388.662 346.835 376.09 346.835C363.519 346.835 353.335 346.696 353.335 346.523C353.335 346.35 363.519 346.212 376.09 346.212C388.662 346.212 398.846 346.35 398.846 346.523Z" fill="#E0E0E0"/>
<path d="M333.094 193.156H325.39V209.416H333.094V193.156Z" fill="#FAFAFA"/>
<path d="M352.92 215.798C352.92 215.971 342.725 216.11 330.165 216.11C317.605 216.11 307.398 215.971 307.398 215.798C307.398 215.625 317.593 215.486 330.165 215.486C342.736 215.486 352.92 215.613 352.92 215.798Z" fill="#E0E0E0"/>
<path d="M333.094 225.919H325.39V242.178H333.094V225.919Z" fill="#FAFAFA"/>
<path d="M352.92 248.56C352.92 248.733 342.725 248.872 330.165 248.872C317.605 248.872 307.398 248.733 307.398 248.56C307.398 248.387 317.593 248.248 330.165 248.248C342.736 248.248 352.92 248.387 352.92 248.56Z" fill="#E0E0E0"/>
<path d="M333.094 258.692H325.39V274.952H333.094V258.692Z" fill="#FAFAFA"/>
<path d="M352.92 281.322C352.92 281.495 342.725 281.634 330.165 281.634C317.605 281.634 307.398 281.495 307.398 281.322C307.398 281.149 317.593 281.01 330.165 281.01C342.736 281.01 352.92 281.149 352.92 281.322Z" fill="#E0E0E0"/>
<path d="M333.094 291.454H325.39V307.714H333.094V291.454Z" fill="#FAFAFA"/>
<path d="M352.92 314.096C352.92 314.269 342.725 314.407 330.165 314.407C317.605 314.407 307.398 314.269 307.398 314.096C307.398 313.923 317.593 313.784 330.165 313.784C342.736 313.784 352.92 313.888 352.92 314.096Z" fill="#E0E0E0"/>
<path d="M333.094 324.228H325.39V340.488H333.094V324.228Z" fill="#FAFAFA"/>
<path d="M352.92 346.858C352.92 347.031 342.725 347.169 330.165 347.169C317.605 347.169 307.398 347.031 307.398 346.858C307.398 346.685 317.593 346.546 330.165 346.546C342.736 346.546 352.92 346.685 352.92 346.858Z" fill="#E0E0E0"/>
<path d="M333.094 356.99H325.39V373.25H333.094V356.99Z" fill="#FAFAFA"/>
<path d="M308.436 229.877H243.03V437.274H308.436V229.877Z" fill="#F5F5F5"/>
<path d="M308.436 229.877H275.739V436.708H308.436V229.877Z" fill="#EBEBEB"/>
<path d="M273.605 209.52H250.504V229.877H273.605V209.52Z" fill="#F5F5F5"/>
<path d="M273.594 209.52H268.092V229.877H273.594V209.52Z" fill="#EBEBEB"/>
<path d="M237.587 229.877V228.688H310.35V229.877" fill="#E0E0E0"/>
<path d="M261.472 238.763H255.936V250.441H261.472V238.763Z" fill="#FAFAFA"/>
<path d="M275.739 255.034C275.739 255.161 268.415 255.253 259.385 255.253C250.354 255.253 243.03 255.161 243.03 255.034C243.03 254.907 250.354 254.815 259.385 254.815C268.415 254.815 275.739 254.895 275.739 255.034Z" fill="#E0E0E0"/>
<path d="M294.469 238.763H288.933V250.441H294.469V238.763Z" fill="#E0E0E0"/>
<path d="M308.724 255.034C308.724 255.161 301.401 255.253 292.37 255.253C283.339 255.253 276.016 255.161 276.016 255.034C276.016 254.907 283.339 254.815 292.37 254.815C301.401 254.815 308.724 254.895 308.724 255.034Z" fill="#E0E0E0"/>
<path d="M294.469 261.947H288.933V273.625H294.469V261.947Z" fill="#E0E0E0"/>
<path d="M308.724 278.218C308.724 278.333 301.401 278.437 292.37 278.437C283.339 278.437 276.016 278.333 276.016 278.218C276.016 278.102 283.339 277.987 292.37 277.987C301.401 277.987 308.724 278.114 308.724 278.218Z" fill="#E0E0E0"/>
<path d="M294.469 285.834H288.933V297.513H294.469V285.834Z" fill="#E0E0E0"/>
<path d="M308.724 302.106C308.724 302.221 301.401 302.325 292.37 302.325C283.339 302.325 276.016 302.221 276.016 302.106C276.016 301.99 283.339 301.875 292.37 301.875C301.401 301.875 308.724 301.979 308.724 302.106Z" fill="#E0E0E0"/>
<path d="M294.469 309.734H288.933V321.412H294.469V309.734Z" fill="#E0E0E0"/>
<path d="M308.724 325.993C308.724 326.12 301.401 326.213 292.37 326.213C283.339 326.213 276.016 326.12 276.016 325.993C276.016 325.866 283.339 325.774 292.37 325.774C301.401 325.774 308.724 325.866 308.724 325.993Z" fill="#E0E0E0"/>
<path d="M294.469 332.929H288.933V344.607H294.469V332.929Z" fill="#E0E0E0"/>
<path d="M308.724 349.2C308.724 349.327 301.401 349.42 292.37 349.42C283.339 349.42 276.016 349.327 276.016 349.2C276.016 349.074 283.339 348.981 292.37 348.981C301.401 348.981 308.724 349.074 308.724 349.2Z" fill="#E0E0E0"/>
<path d="M294.469 356.24H288.933V367.918H294.469V356.24Z" fill="#E0E0E0"/>
<path d="M294.469 379.839H288.933V391.518H294.469V379.839Z" fill="#E0E0E0"/>
<path d="M308.724 372.5C308.724 372.627 301.401 372.719 292.37 372.719C283.339 372.719 276.016 372.627 276.016 372.5C276.016 372.373 283.339 372.28 292.37 372.28C301.401 372.28 308.724 372.373 308.724 372.5Z" fill="#E0E0E0"/>
<path d="M261.472 262.304H255.936V273.983H261.472V262.304Z" fill="#FAFAFA"/>
<path d="M275.739 278.564C275.739 278.691 268.415 278.795 259.385 278.795C250.354 278.795 243.03 278.691 243.03 278.564C243.03 278.437 250.354 278.345 259.385 278.345C268.415 278.345 275.739 278.449 275.739 278.564Z" fill="#E0E0E0"/>
<path d="M261.472 285.846H255.936V297.524H261.472V285.846Z" fill="#FAFAFA"/>
<path d="M275.739 302.106C275.739 302.233 268.415 302.336 259.385 302.336C250.354 302.336 243.03 302.233 243.03 302.106C243.03 301.979 250.354 301.886 259.385 301.886C268.415 301.886 275.739 301.99 275.739 302.106Z" fill="#E0E0E0"/>
<path d="M261.472 309.387H255.936V321.066H261.472V309.387Z" fill="#FAFAFA"/>
<path d="M275.739 325.659C275.739 325.774 268.415 325.878 259.385 325.878C250.354 325.878 243.03 325.774 243.03 325.659C243.03 325.543 250.354 325.428 259.385 325.428C268.415 325.428 275.739 325.532 275.739 325.659Z" fill="#E0E0E0"/>
<path d="M261.472 332.929H255.936V344.607H261.472V332.929Z" fill="#FAFAFA"/>
<path d="M275.739 349.2C275.739 349.327 268.415 349.42 259.385 349.42C250.354 349.42 243.03 349.327 243.03 349.2C243.03 349.074 250.354 348.981 259.385 348.981C268.415 348.981 275.739 349.074 275.739 349.2Z" fill="#E0E0E0"/>
<path d="M261.472 356.482H255.936V368.161H261.472V356.482Z" fill="#FAFAFA"/>
<path d="M275.739 372.742C275.739 372.869 268.415 372.961 259.385 372.961C250.354 372.961 243.03 372.869 243.03 372.742C243.03 372.615 250.354 372.523 259.385 372.523C268.415 372.523 275.739 372.615 275.739 372.742Z" fill="#E0E0E0"/>
<path d="M261.472 380.024H255.936V391.702H261.472V380.024Z" fill="#FAFAFA"/>
<path d="M653.156 83.5034H585.651V260.862H653.156V83.5034Z" fill="#EBEBEB"/>
<path d="M653.167 83.5034H619.409V260.862H653.167V83.5034Z" fill="#E0E0E0"/>
<path d="M617.206 62.4198H593.367V83.5034H617.206V62.4198Z" fill="#EBEBEB"/>
<path d="M617.206 62.4198H611.52V83.5034H617.206V62.4198Z" fill="#E0E0E0"/>
<path d="M655.139 82.2687H580.034V83.5035H655.139V82.2687Z" fill="#E0E0E0"/>
<path d="M604.693 92.7008H598.984V104.795H604.693V92.7008Z" fill="white"/>
<path d="M619.409 109.538C619.409 109.665 611.855 109.768 602.536 109.768C593.217 109.768 585.651 109.665 585.651 109.538C585.651 109.411 593.205 109.307 602.536 109.307C611.866 109.307 619.409 109.411 619.409 109.538Z" fill="#E0E0E0"/>
<path d="M638.739 92.7008H633.03V104.795H638.739V92.7008Z" fill="#F5F5F5"/>
<path d="M653.456 109.538C653.456 109.665 645.901 109.768 636.582 109.768C627.263 109.768 619.698 109.665 619.698 109.538C619.698 109.411 627.252 109.307 636.582 109.307C645.913 109.307 653.456 109.411 653.456 109.538Z" fill="#EBEBEB"/>
<path d="M638.739 116.704H633.03V128.798H638.739V116.704Z" fill="#F5F5F5"/>
<path d="M653.456 133.552C653.456 133.679 645.901 133.783 636.582 133.783C627.263 133.783 619.698 133.679 619.698 133.552C619.698 133.426 627.252 133.322 636.582 133.322C645.913 133.322 653.456 133.426 653.456 133.552Z" fill="#EBEBEB"/>
<path d="M638.739 141.446H633.03V153.54H638.739V141.446Z" fill="#F5F5F5"/>
<path d="M653.456 158.283C653.456 158.41 645.901 158.513 636.582 158.513C627.263 158.513 619.698 158.41 619.698 158.283C619.698 158.156 627.252 158.052 636.582 158.052C645.913 158.052 653.456 158.156 653.456 158.283Z" fill="#EBEBEB"/>
<path d="M638.739 166.176H633.03V178.27H638.739V166.176Z" fill="#F5F5F5"/>
<path d="M653.456 183.024C653.456 183.151 645.901 183.255 636.582 183.255C627.263 183.255 619.698 183.151 619.698 183.024C619.698 182.897 627.252 182.794 636.582 182.794C645.913 182.794 653.456 182.897 653.456 183.024Z" fill="#EBEBEB"/>
<path d="M638.739 190.214H633.03V202.308H638.739V190.214Z" fill="#F5F5F5"/>
<path d="M653.456 207.051C653.456 207.178 645.901 207.281 636.582 207.281C627.263 207.281 619.698 207.178 619.698 207.051C619.698 206.924 627.252 206.82 636.582 206.82C645.913 206.82 653.456 206.924 653.456 207.051Z" fill="#EBEBEB"/>
<path d="M638.739 214.332H633.03V226.426H638.739V214.332Z" fill="#F5F5F5"/>
<path d="M638.739 238.774H633.03V250.868H638.739V238.774Z" fill="#F5F5F5"/>
<path d="M653.456 231.181C653.456 231.308 645.901 231.412 636.582 231.412C627.263 231.412 619.698 231.308 619.698 231.181C619.698 231.054 627.252 230.95 636.582 230.95C645.913 230.95 653.456 231.054 653.456 231.181Z" fill="#EBEBEB"/>
<path d="M604.693 117.073H598.984V129.167H604.693V117.073Z" fill="white"/>
<path d="M619.409 133.864C619.409 134.002 611.855 134.106 602.536 134.106C593.217 134.106 585.651 134.002 585.651 133.864C585.651 133.725 593.205 133.633 602.536 133.633C611.866 133.633 619.409 133.783 619.409 133.864Z" fill="#E0E0E0"/>
<path d="M604.693 141.457H598.984V153.551H604.693V141.457Z" fill="white"/>
<path d="M619.409 158.294C619.409 158.421 611.855 158.525 602.536 158.525C593.217 158.525 585.651 158.421 585.651 158.294C585.651 158.167 593.205 158.063 602.536 158.063C611.866 158.063 619.409 158.167 619.409 158.294Z" fill="#E0E0E0"/>
<path d="M604.693 165.83H598.984V177.924H604.693V165.83Z" fill="white"/>
<path d="M619.409 182.678C619.409 182.805 611.855 182.909 602.536 182.909C593.217 182.909 585.651 182.805 585.651 182.678C585.651 182.551 593.205 182.447 602.536 182.447C611.866 182.447 619.409 182.54 619.409 182.678Z" fill="#E0E0E0"/>
<path d="M604.693 190.214H598.984V202.308H604.693V190.214Z" fill="white"/>
<path d="M619.409 207.051C619.409 207.178 611.855 207.281 602.536 207.281C593.217 207.281 585.651 207.178 585.651 207.051C585.651 206.924 593.205 206.82 602.536 206.82C611.866 206.82 619.409 206.924 619.409 207.051Z" fill="#E0E0E0"/>
<path d="M604.693 214.586H598.984V226.68H604.693V214.586Z" fill="white"/>
<path d="M619.409 231.435C619.409 231.562 611.855 231.665 602.536 231.665C593.217 231.665 585.651 231.562 585.651 231.435C585.651 231.308 593.205 231.204 602.536 231.204C611.866 231.204 619.409 231.308 619.409 231.435Z" fill="#E0E0E0"/>
<path d="M604.693 238.97H598.984V251.064H604.693V238.97Z" fill="white"/>
<path d="M504.134 268.236H416.1V435.935H504.134V268.236Z" fill="#E0E0E0"/>
<path d="M504.133 268.236H462.856V435.935H504.133V268.236Z" fill="#EBEBEB"/>
<path d="M442.465 284.011H434.553V303.317H442.465V284.011Z" fill="#F5F5F5"/>
<path d="M442.465 359.563H434.553V378.87H442.465V359.563Z" fill="#F5F5F5"/>
<path d="M462.856 310.888C462.856 311.061 452.383 311.188 439.478 311.188C426.572 311.188 416.1 311.061 416.1 310.888C416.1 310.715 426.56 310.588 439.478 310.588C452.395 310.588 462.856 310.726 462.856 310.888Z" fill="#F5F5F5"/>
<path d="M442.465 322.07H434.553V341.376H442.465V322.07Z" fill="#F5F5F5"/>
<path d="M462.856 348.947C462.856 349.12 452.383 349.247 439.478 349.247C426.572 349.247 416.1 349.12 416.1 348.947C416.1 348.773 426.56 348.646 439.478 348.646C452.395 348.646 462.856 348.785 462.856 348.947Z" fill="#F5F5F5"/>
<path d="M479.533 284.011H471.621V303.317H479.533V284.011Z" fill="#E0E0E0"/>
<path d="M496.706 284.011H488.794V303.317H496.706V284.011Z" fill="#E0E0E0"/>
<path d="M479.533 320.639H471.621V339.945H479.533V320.639Z" fill="#E0E0E0"/>
<path d="M496.706 320.639H488.794V339.945H496.706V320.639Z" fill="#E0E0E0"/>
<path d="M479.533 357.267H471.621V376.573H479.533V357.267Z" fill="#E0E0E0"/>
<path d="M496.706 357.267H488.794V376.573H496.706V357.267Z" fill="#E0E0E0"/>
<path d="M510.742 264.174H409.479V268.374H510.742V264.174Z" fill="#E0E0E0"/>
<path d="M504.745 268.767C504.745 268.94 485.069 269.078 460.803 269.078C436.537 269.078 416.861 268.94 416.861 268.767C416.861 268.593 436.525 268.467 460.803 268.467C485.081 268.467 504.745 268.605 504.745 268.767Z" fill="#EBEBEB"/>
<path d="M790.887 174.831H722.736V391.645H790.887V174.831Z" fill="#F5F5F5"/>
<path d="M790.887 174.831H756.806V391.044H790.887V174.831Z" fill="#EBEBEB"/>
<path d="M754.58 153.551H730.51V174.831H754.58V153.551Z" fill="#F5F5F5"/>
<path d="M754.58 153.551H748.848V174.831H754.58V153.551Z" fill="#EBEBEB"/>
<path d="M717.05 174.831V173.596H792.882V174.831" fill="#E0E0E0"/>
<path d="M741.951 184.121H736.184V196.33H741.951V184.121Z" fill="#FAFAFA"/>
<path d="M756.806 201.119C756.806 201.246 749.182 201.35 739.771 201.35C730.36 201.35 722.736 201.246 722.736 201.119C722.736 200.992 730.36 200.888 739.771 200.888C749.182 200.888 756.806 200.992 756.806 201.119Z" fill="#E0E0E0"/>
<path d="M776.32 184.121H770.554V196.33H776.32V184.121Z" fill="#E0E0E0"/>
<path d="M791.187 201.119C791.187 201.246 783.563 201.35 774.152 201.35C764.741 201.35 757.117 201.246 757.117 201.119C757.117 200.992 764.741 200.888 774.152 200.888C783.563 200.888 791.187 200.992 791.187 201.119Z" fill="#E0E0E0"/>
<path d="M776.32 208.355H770.554V220.564H776.32V208.355Z" fill="#E0E0E0"/>
<path d="M791.187 225.365C791.187 225.492 783.563 225.595 774.152 225.595C764.741 225.595 757.117 225.492 757.117 225.365C757.117 225.238 764.741 225.122 774.152 225.122C783.563 225.122 791.187 225.226 791.187 225.365Z" fill="#E0E0E0"/>
<path d="M776.32 233.327H770.554V245.537H776.32V233.327Z" fill="#E0E0E0"/>
<path d="M791.187 250.337C791.187 250.464 783.563 250.568 774.152 250.568C764.741 250.568 757.117 250.464 757.117 250.337C757.117 250.21 764.741 250.095 774.152 250.095C783.563 250.095 791.187 250.199 791.187 250.337Z" fill="#E0E0E0"/>
<path d="M776.32 258.3H770.554V270.509H776.32V258.3Z" fill="#E0E0E0"/>
<path d="M791.187 275.31C791.187 275.437 783.563 275.541 774.152 275.541C764.741 275.541 757.117 275.437 757.117 275.31C757.117 275.183 764.741 275.079 774.152 275.079C783.563 275.079 791.187 275.183 791.187 275.31Z" fill="#E0E0E0"/>
<path d="M776.32 282.568H770.554V294.778H776.32V282.568Z" fill="#E0E0E0"/>
<path d="M791.187 299.567C791.187 299.694 783.563 299.798 774.152 299.798C764.741 299.798 757.117 299.694 757.117 299.567C757.117 299.44 764.741 299.336 774.152 299.336C783.563 299.336 791.187 299.44 791.187 299.567Z" fill="#E0E0E0"/>
<path d="M776.32 306.918H770.554V319.127H776.32V306.918Z" fill="#E0E0E0"/>
<path d="M776.32 331.59H770.554V343.8H776.32V331.59Z" fill="#E0E0E0"/>
<path d="M791.187 323.928C791.187 324.055 783.563 324.159 774.152 324.159C764.741 324.159 757.117 324.055 757.117 323.928C757.117 323.801 764.741 323.685 774.152 323.685C783.563 323.685 791.187 323.789 791.187 323.928Z" fill="#E0E0E0"/>
<path d="M741.951 208.724H736.184V220.933H741.951V208.724Z" fill="#FAFAFA"/>
<path d="M756.806 225.734C756.806 225.861 749.182 225.965 739.771 225.965C730.36 225.965 722.736 225.861 722.736 225.734C722.736 225.607 730.36 225.492 739.771 225.492C749.182 225.492 756.806 225.595 756.806 225.734Z" fill="#E0E0E0"/>
<path d="M741.951 233.339H736.184V245.548H741.951V233.339Z" fill="#FAFAFA"/>
<path d="M756.806 250.337C756.806 250.476 749.182 250.58 739.771 250.58C730.36 250.58 722.736 250.476 722.736 250.337C722.736 250.199 730.36 250.106 739.771 250.106C749.182 250.106 756.806 250.21 756.806 250.337Z" fill="#E0E0E0"/>
<path d="M741.951 257.954H736.184V270.163H741.951V257.954Z" fill="#FAFAFA"/>
<path d="M756.806 274.952C756.806 275.079 749.182 275.183 739.771 275.183C730.36 275.183 722.736 275.079 722.736 274.952C722.736 274.825 730.36 274.721 739.771 274.721C749.182 274.721 756.806 274.825 756.806 274.952Z" fill="#E0E0E0"/>
<path d="M741.951 282.568H736.184V294.778H741.951V282.568Z" fill="#FAFAFA"/>
<path d="M756.806 299.567C756.806 299.694 749.182 299.798 739.771 299.798C730.36 299.798 722.736 299.694 722.736 299.567C722.736 299.44 730.36 299.336 739.771 299.336C749.182 299.336 756.806 299.44 756.806 299.567Z" fill="#E0E0E0"/>
<path d="M741.951 307.172H736.184V319.381H741.951V307.172Z" fill="#FAFAFA"/>
<path d="M756.806 324.182C756.806 324.309 749.182 324.412 739.771 324.412C730.36 324.412 722.736 324.309 722.736 324.182C722.736 324.055 730.36 323.939 739.771 323.939C749.182 323.939 756.806 324.043 756.806 324.182Z" fill="#E0E0E0"/>
<path d="M741.951 331.787H736.184V343.996H741.951V331.787Z" fill="#FAFAFA"/>
<path d="M834.886 289.469H723.036V437.562H834.886V289.469Z" fill="#EBEBEB"/>
<path d="M834.887 289.469H782.444V437.562H834.887V289.469Z" fill="#E0E0E0"/>
<path d="M756.541 309.514H746.484V334.037H756.541V309.514Z" fill="#F5F5F5"/>
<path d="M756.541 405.504H746.484V430.027H756.541V405.504Z" fill="#F5F5F5"/>
<path d="M782.444 343.673C782.444 343.95 769.135 344.169 752.734 344.169C736.334 344.169 723.036 343.95 723.036 343.673C723.036 343.396 736.334 343.165 752.734 343.165C769.135 343.165 782.444 343.396 782.444 343.673Z" fill="#F5F5F5"/>
<path d="M756.541 357.878H746.484V382.401H756.541V357.878Z" fill="#F5F5F5"/>
<path d="M782.444 392.025C782.444 392.302 769.135 392.533 752.734 392.533C736.334 392.533 723.036 392.302 723.036 392.025C723.036 391.748 736.334 391.529 752.734 391.529C769.135 391.529 782.444 391.748 782.444 392.025Z" fill="#F5F5F5"/>
<path d="M803.631 309.514H793.574V334.037H803.631V309.514Z" fill="#F5F5F5"/>
<path d="M825.452 309.514H815.395V334.037H825.452V309.514Z" fill="#F5F5F5"/>
<path d="M803.631 356.055H793.574V380.578H803.631V356.055Z" fill="#F5F5F5"/>
<path d="M825.452 356.055H815.395V380.578H825.452V356.055Z" fill="#F5F5F5"/>
<path d="M803.631 402.596H793.574V427.118H803.631V402.596Z" fill="#F5F5F5"/>
<path d="M825.452 402.596H815.395V427.118H825.452V402.596Z" fill="#F5F5F5"/>
<path d="M843.294 284.311H714.628V289.654H843.294V284.311Z" fill="#E0E0E0"/>
<path d="M835.671 290.15C835.671 290.427 810.667 290.658 779.838 290.658C749.009 290.658 723.994 290.427 723.994 290.15C723.994 289.873 748.986 289.654 779.838 289.654C810.69 289.654 835.671 289.885 835.671 290.15Z" fill="#EBEBEB"/>
<path d="M717.95 436.766H605.2L604.716 257.907H717.454L717.95 436.766Z" fill="#EBEBEB"/>
<path d="M717.454 257.907H661.079V436.766H717.454V257.907Z" fill="#E0E0E0"/>
<path d="M657.4 222.699H617.587V257.908H657.4V222.699Z" fill="#EBEBEB"/>
<path d="M657.4 222.699H647.908V257.908H657.4V222.699Z" fill="#E0E0E0"/>
<path d="M720.753 255.853H595.316V257.908H720.753V255.853Z" fill="#E0E0E0"/>
<path d="M636.502 273.267H626.964V293.462H636.502V273.267Z" fill="white"/>
<path d="M661.079 301.39C661.079 301.598 648.462 301.771 632.892 301.771C617.322 301.771 604.716 301.598 604.716 301.39C604.716 301.182 617.333 301.009 632.892 301.009C648.45 301.009 661.079 301.194 661.079 301.39Z" fill="#E0E0E0"/>
<path d="M693.361 273.267H683.823V293.462H693.361V273.267Z" fill="#F5F5F5"/>
<path d="M717.95 301.39C717.95 301.598 705.263 301.771 689.763 301.771C674.262 301.771 661.575 301.598 661.575 301.39C661.575 301.182 674.193 301.009 689.763 301.009C705.333 301.009 717.95 301.194 717.95 301.39Z" fill="#EBEBEB"/>
<path d="M693.361 313.369H683.823V333.564H693.361V313.369Z" fill="#F5F5F5"/>
<path d="M717.95 341.492C717.95 341.711 705.263 341.884 689.763 341.884C674.262 341.884 661.575 341.711 661.575 341.492C661.575 341.272 674.193 341.111 689.763 341.111C705.333 341.111 717.95 341.284 717.95 341.492Z" fill="#EBEBEB"/>
<path d="M693.361 354.682H683.823V374.877H693.361V354.682Z" fill="#F5F5F5"/>
<path d="M717.95 382.805C717.95 383.024 705.263 383.197 689.763 383.197C674.262 383.197 661.575 383.024 661.575 382.805C661.575 382.586 674.193 382.424 689.763 382.424C705.333 382.424 717.95 382.597 717.95 382.805Z" fill="#EBEBEB"/>
<path d="M693.361 395.995H683.823V416.19H693.361V395.995Z" fill="#F5F5F5"/>
<path d="M717.95 424.118C717.95 424.337 705.263 424.51 689.763 424.51C674.262 424.51 661.575 424.337 661.575 424.118C661.575 423.899 674.193 423.737 689.763 423.737C705.333 423.737 717.95 423.91 717.95 424.118Z" fill="#EBEBEB"/>
<path d="M636.502 313.98H626.964V334.175H636.502V313.98Z" fill="white"/>
<path d="M661.079 342.103C661.079 342.323 648.462 342.496 632.892 342.496C617.322 342.496 604.716 342.323 604.716 342.103C604.716 341.884 617.333 341.722 632.892 341.722C648.45 341.722 661.079 341.896 661.079 342.103Z" fill="#E0E0E0"/>
<path d="M636.502 354.693H626.964V374.888H636.502V354.693Z" fill="white"/>
<path d="M661.079 382.816C661.079 383.036 648.462 383.209 632.892 383.209C617.322 383.209 604.716 383.036 604.716 382.816C604.716 382.597 617.333 382.436 632.892 382.436C648.45 382.436 661.079 382.609 661.079 382.816Z" fill="#E0E0E0"/>
<path d="M636.502 395.407H626.964V415.602H636.502V395.407Z" fill="white"/>
<path d="M661.079 423.518C661.079 423.737 648.462 423.91 632.892 423.91C617.322 423.91 604.716 423.737 604.716 423.518C604.716 423.299 617.333 423.137 632.892 423.137C648.45 423.137 661.079 423.322 661.079 423.518Z" fill="#E0E0E0"/>
<path d="M579.158 106.722H486.649V435.508H579.158V106.722Z" fill="#EBEBEB"/>
<path d="M502.392 118.066H494.157V135.445H502.392V118.066Z" fill="white"/>
<path d="M519.704 118.066H511.469V135.445H519.704V118.066Z" fill="white"/>
<path d="M537.015 118.066H528.78V135.445H537.015V118.066Z" fill="white"/>
<path d="M554.327 118.066H546.092V135.445H554.327V118.066Z" fill="white"/>
<path d="M571.638 118.066H563.403V135.445H571.638V118.066Z" fill="white"/>
<path d="M502.392 142.369H494.157V159.748H502.392V142.369Z" fill="white"/>
<path d="M519.704 142.369H511.469V159.748H519.704V142.369Z" fill="white"/>
<path d="M537.015 142.369H528.78V159.748H537.015V142.369Z" fill="white"/>
<path d="M554.327 142.369H546.092V159.748H554.327V142.369Z" fill="white"/>
<path d="M571.638 142.369H563.403V159.748H571.638V142.369Z" fill="white"/>
<path d="M502.392 166.684H494.157V184.063H502.392V166.684Z" fill="white"/>
<path d="M519.704 166.684H511.469V184.063H519.704V166.684Z" fill="white"/>
<path d="M537.015 166.684H528.78V184.063H537.015V166.684Z" fill="white"/>
<path d="M554.327 166.684H546.092V184.063H554.327V166.684Z" fill="white"/>
<path d="M571.638 166.684H563.403V184.063H571.638V166.684Z" fill="white"/>
<path d="M502.392 190.987H494.157V208.366H502.392V190.987Z" fill="white"/>
<path d="M519.704 190.987H511.469V208.366H519.704V190.987Z" fill="white"/>
<path d="M537.015 190.987H528.78V208.366H537.015V190.987Z" fill="white"/>
<path d="M554.327 190.987H546.092V208.366H554.327V190.987Z" fill="white"/>
<path d="M571.638 190.987H563.403V208.366H571.638V190.987Z" fill="white"/>
<path d="M502.392 215.29H494.157V232.67H502.392V215.29Z" fill="white"/>
<path d="M519.704 215.29H511.469V232.67H519.704V215.29Z" fill="white"/>
<path d="M537.015 215.29H528.78V232.67H537.015V215.29Z" fill="white"/>
<path d="M554.327 215.29H546.092V232.67H554.327V215.29Z" fill="white"/>
<path d="M571.638 215.29H563.403V232.67H571.638V215.29Z" fill="white"/>
<path d="M502.392 239.605H494.157V256.984H502.392V239.605Z" fill="white"/>
<path d="M519.704 239.605H511.469V256.984H519.704V239.605Z" fill="white"/>
<path d="M537.015 239.605H528.78V256.984H537.015V239.605Z" fill="white"/>
<path d="M554.327 239.605H546.092V256.984H554.327V239.605Z" fill="white"/>
<path d="M571.638 239.605H563.403V256.984H571.638V239.605Z" fill="white"/>
<path d="M502.392 263.908H494.157V281.287H502.392V263.908Z" fill="white"/>
<path d="M519.704 263.908H511.469V281.287H519.704V263.908Z" fill="white"/>
<path d="M537.015 263.908H528.78V281.287H537.015V263.908Z" fill="white"/>
<path d="M554.327 263.908H546.092V281.287H554.327V263.908Z" fill="white"/>
<path d="M571.638 263.908H563.403V281.287H571.638V263.908Z" fill="white"/>
<path d="M502.392 288.223H494.157V305.602H502.392V288.223Z" fill="white"/>
<path d="M519.704 288.223H511.469V305.602H519.704V288.223Z" fill="white"/>
<path d="M537.015 288.223H528.78V305.602H537.015V288.223Z" fill="white"/>
<path d="M554.327 288.223H546.092V305.602H554.327V288.223Z" fill="white"/>
<path d="M571.638 288.223H563.403V305.602H571.638V288.223Z" fill="white"/>
<path d="M502.392 312.526H494.157V329.905H502.392V312.526Z" fill="white"/>
<path d="M519.704 312.526H511.469V329.905H519.704V312.526Z" fill="white"/>
<path d="M537.015 312.526H528.78V329.905H537.015V312.526Z" fill="white"/>
<path d="M554.327 312.526H546.092V329.905H554.327V312.526Z" fill="white"/>
<path d="M571.638 312.526H563.403V329.905H571.638V312.526Z" fill="white"/>
<path d="M502.392 336.83H494.157V354.209H502.392V336.83Z" fill="white"/>
<path d="M519.704 336.83H511.469V354.209H519.704V336.83Z" fill="white"/>
<path d="M537.015 336.83H528.78V354.209H537.015V336.83Z" fill="white"/>
<path d="M554.327 336.83H546.092V354.209H554.327V336.83Z" fill="white"/>
<path d="M571.638 336.83H563.403V354.209H571.638V336.83Z" fill="white"/>
<path d="M502.392 361.144H494.157V378.524H502.392V361.144Z" fill="white"/>
<path d="M519.704 361.144H511.469V378.524H519.704V361.144Z" fill="white"/>
<path d="M537.015 361.144H528.78V378.524H537.015V361.144Z" fill="white"/>
<path d="M554.327 361.144H546.092V378.524H554.327V361.144Z" fill="white"/>
<path d="M571.638 361.144H563.403V378.524H571.638V361.144Z" fill="white"/>
<path d="M502.392 385.448H494.157V402.827H502.392V385.448Z" fill="white"/>
<path d="M519.704 385.448H511.469V402.827H519.704V385.448Z" fill="white"/>
<path d="M537.015 385.448H528.78V402.827H537.015V385.448Z" fill="white"/>
<path d="M554.327 385.448H546.092V402.827H554.327V385.448Z" fill="white"/>
<path d="M571.638 385.448H563.403V402.827H571.638V385.448Z" fill="white"/>
<path d="M502.392 408.412H494.157V425.791H502.392V408.412Z" fill="white"/>
<path d="M519.704 408.412H511.469V425.791H519.704V408.412Z" fill="white"/>
<path d="M537.015 408.412H528.78V425.791H537.015V408.412Z" fill="white"/>
<path d="M554.327 408.412H546.092V425.791H554.327V408.412Z" fill="white"/>
<path d="M571.638 408.412H563.403V425.791H571.638V408.412Z" fill="white"/>
<path d="M619.559 106.722H579.146V435.508H619.559V106.722Z" fill="#E0E0E0"/>
<path d="M537.015 118.066H528.78V135.445H537.015V118.066Z" fill="white"/>
<path d="M554.327 118.066H546.092V135.445H554.327V118.066Z" fill="white"/>
<path d="M571.638 118.066H563.403V135.445H571.638V118.066Z" fill="white"/>
<path d="M537.015 142.369H528.78V159.748H537.015V142.369Z" fill="white"/>
<path d="M554.327 142.369H546.092V159.748H554.327V142.369Z" fill="white"/>
<path d="M571.638 142.369H563.403V159.748H571.638V142.369Z" fill="white"/>
<path d="M537.015 166.684H528.78V184.063H537.015V166.684Z" fill="white"/>
<path d="M554.327 166.684H546.092V184.063H554.327V166.684Z" fill="white"/>
<path d="M571.638 166.684H563.403V184.063H571.638V166.684Z" fill="white"/>
<path d="M537.015 190.987H528.78V208.366H537.015V190.987Z" fill="white"/>
<path d="M554.327 190.987H546.092V208.366H554.327V190.987Z" fill="white"/>
<path d="M571.638 190.987H563.403V208.366H571.638V190.987Z" fill="white"/>
<path d="M537.015 215.29H528.78V232.67H537.015V215.29Z" fill="white"/>
<path d="M554.327 215.29H546.092V232.67H554.327V215.29Z" fill="white"/>
<path d="M571.638 215.29H563.403V232.67H571.638V215.29Z" fill="white"/>
<path d="M537.015 239.605H528.78V256.984H537.015V239.605Z" fill="white"/>
<path d="M554.327 239.605H546.092V256.984H554.327V239.605Z" fill="white"/>
<path d="M571.638 239.605H563.403V256.984H571.638V239.605Z" fill="white"/>
<path d="M537.015 263.908H528.78V281.287H537.015V263.908Z" fill="white"/>
<path d="M554.327 263.908H546.092V281.287H554.327V263.908Z" fill="white"/>
<path d="M571.638 263.908H563.403V281.287H571.638V263.908Z" fill="white"/>
<path d="M537.015 288.223H528.78V305.602H537.015V288.223Z" fill="white"/>
<path d="M554.327 288.223H546.092V305.602H554.327V288.223Z" fill="white"/>
<path d="M571.638 288.223H563.403V305.602H571.638V288.223Z" fill="white"/>
<path d="M537.015 312.526H528.78V329.905H537.015V312.526Z" fill="white"/>
<path d="M554.327 312.526H546.092V329.905H554.327V312.526Z" fill="white"/>
<path d="M571.638 312.526H563.403V329.905H571.638V312.526Z" fill="white"/>
<path d="M537.015 336.83H528.78V354.209H537.015V336.83Z" fill="white"/>
<path d="M554.327 336.83H546.092V354.209H554.327V336.83Z" fill="white"/>
<path d="M571.638 336.83H563.403V354.209H571.638V336.83Z" fill="white"/>
<path d="M537.015 361.144H528.78V378.524H537.015V361.144Z" fill="white"/>
<path d="M554.327 361.144H546.092V378.524H554.327V361.144Z" fill="white"/>
<path d="M571.638 361.144H563.403V378.524H571.638V361.144Z" fill="white"/>
<path d="M537.015 385.448H528.78V402.827H537.015V385.448Z" fill="white"/>
<path d="M554.327 385.448H546.092V402.827H554.327V385.448Z" fill="white"/>
<path d="M571.638 385.448H563.403V402.827H571.638V385.448Z" fill="white"/>
<path d="M537.015 408.412H528.78V425.791H537.015V408.412Z" fill="white"/>
<path d="M554.327 408.412H546.092V425.791H554.327V408.412Z" fill="white"/>
<path d="M571.638 408.412H563.403V425.791H571.638V408.412Z" fill="white"/>
<path d="M596.527 118.066H588.292V135.445H596.527V118.066Z" fill="#EBEBEB"/>
<path d="M613.839 118.066H605.604V135.445H613.839V118.066Z" fill="#EBEBEB"/>
<path d="M596.527 142.369H588.292V159.748H596.527V142.369Z" fill="#EBEBEB"/>
<path d="M613.839 142.369H605.604V159.748H613.839V142.369Z" fill="#EBEBEB"/>
<path d="M596.527 166.684H588.292V184.063H596.527V166.684Z" fill="#EBEBEB"/>
<path d="M613.839 166.684H605.604V184.063H613.839V166.684Z" fill="#EBEBEB"/>
<path d="M596.527 190.987H588.292V208.366H596.527V190.987Z" fill="#EBEBEB"/>
<path d="M613.839 190.987H605.604V208.366H613.839V190.987Z" fill="#EBEBEB"/>
<path d="M596.527 215.29H588.292V232.67H596.527V215.29Z" fill="#EBEBEB"/>
<path d="M613.839 215.29H605.604V232.67H613.839V215.29Z" fill="#EBEBEB"/>
<path d="M596.527 239.605H588.292V256.984H596.527V239.605Z" fill="#EBEBEB"/>
<path d="M613.839 239.605H605.604V256.984H613.839V239.605Z" fill="#EBEBEB"/>
<path d="M596.527 263.908H588.292V281.287H596.527V263.908Z" fill="#EBEBEB"/>
<path d="M613.839 263.908H605.604V281.287H613.839V263.908Z" fill="#EBEBEB"/>
<path d="M596.527 288.223H588.292V305.602H596.527V288.223Z" fill="#EBEBEB"/>
<path d="M613.839 288.223H605.604V305.602H613.839V288.223Z" fill="#EBEBEB"/>
<path d="M596.527 312.526H588.292V329.905H596.527V312.526Z" fill="#EBEBEB"/>
<path d="M613.839 312.526H605.604V329.905H613.839V312.526Z" fill="#EBEBEB"/>
<path d="M596.527 336.83H588.292V354.209H596.527V336.83Z" fill="#EBEBEB"/>
<path d="M613.839 336.83H605.604V354.209H613.839V336.83Z" fill="#EBEBEB"/>
<path d="M596.527 361.144H588.292V378.524H596.527V361.144Z" fill="#EBEBEB"/>
<path d="M613.839 361.144H605.604V378.524H613.839V361.144Z" fill="#EBEBEB"/>
<path d="M596.527 385.448H588.292V402.827H596.527V385.448Z" fill="#EBEBEB"/>
<path d="M613.839 385.448H605.604V402.827H613.839V385.448Z" fill="#EBEBEB"/>
<path d="M596.527 408.412H588.292V425.791H596.527V408.412Z" fill="#EBEBEB"/>
<path d="M613.839 408.412H605.604V425.791H613.839V408.412Z" fill="#EBEBEB"/>
<path d="M696.325 184.34C696.706 184.34 697.006 192.129 697.006 201.731C697.006 211.332 696.706 219.133 696.325 219.133C695.944 219.133 695.656 211.344 695.656 201.731C695.656 192.118 695.956 184.34 696.325 184.34Z" fill="#E0E0E0"/>
<path d="M730.913 221.833L633.941 249.379V435.97H730.913V221.833Z" fill="#E0E0E0"/>
<path d="M648.485 245.144V212.047H708.181V228.192L648.485 245.144Z" fill="#E0E0E0"/>
<path d="M641.334 251.237L642.095 422.814H720.972V228.596L641.334 251.237Z" fill="white"/>
<path d="M662.659 426.726C662.279 426.726 661.979 385.551 661.979 334.764C661.979 283.976 662.279 242.802 662.659 242.802C663.04 242.802 663.328 283.976 663.328 334.764C663.328 385.551 663.028 426.726 662.659 426.726Z" fill="#E0E0E0"/>
<path d="M695.806 426.726C695.437 426.726 695.126 383.255 695.126 329.652C695.126 276.048 695.437 232.566 695.806 232.566C696.175 232.566 696.487 276.025 696.487 329.652C696.487 383.278 696.187 426.726 695.806 426.726Z" fill="#E0E0E0"/>
<path d="M726.416 277.422C726.416 277.802 706.809 278.102 682.589 278.102C658.369 278.102 638.762 277.802 638.762 277.422C638.762 277.041 658.369 276.752 682.589 276.752C706.809 276.752 726.416 277.052 726.416 277.422Z" fill="#E0E0E0"/>
<path d="M725.597 329.94C725.597 330.309 705.99 330.609 681.77 330.609C657.55 330.609 637.943 330.309 637.943 329.94C637.943 329.571 657.55 329.259 681.77 329.259C705.99 329.259 725.597 329.559 725.597 329.94Z" fill="#E0E0E0"/>
<path d="M730.521 382.851C730.521 383.232 710.142 383.532 685.011 383.532C659.88 383.532 639.5 383.232 639.5 382.851C639.5 382.47 659.868 382.17 685.011 382.17C710.153 382.17 730.521 382.482 730.521 382.851Z" fill="#E0E0E0"/>
<path d="M730.544 221.833C730.648 222.191 709.185 228.607 682.612 236.155C656.039 243.702 634.403 249.529 634.299 249.172C634.195 248.814 655.658 242.398 682.243 234.85C708.827 227.303 730.441 221.476 730.544 221.833Z" fill="#E0E0E0"/>
<path d="M667.088 316.646C666.823 316.381 671.597 311.176 677.745 305.025C683.892 298.874 689.082 294.097 689.347 294.362C689.613 294.628 684.849 299.832 678.702 305.983C672.555 312.134 667.353 316.912 667.088 316.646Z" fill="#E0E0E0"/>
<path d="M681.908 295.516C682.174 295.793 680.455 297.824 678.079 300.132C675.703 302.44 673.57 304.01 673.304 303.733C673.039 303.456 674.769 301.425 677.145 299.117C679.521 296.809 681.62 295.251 681.908 295.516Z" fill="#E0E0E0"/>
<path d="M687.387 354.924C687.652 355.19 683.581 359.771 678.287 365.16C672.993 370.549 668.495 374.704 668.218 374.392C667.941 374.081 672.024 369.557 677.318 364.156C682.612 358.756 687.11 354.659 687.387 354.924Z" fill="#E0E0E0"/>
<path d="M679.936 357.244C680.213 357.498 678.864 359.448 676.914 361.606C674.965 363.764 673.166 365.299 672.889 365.068C672.612 364.837 673.962 362.875 675.911 360.717C677.86 358.559 679.659 357.002 679.936 357.244Z" fill="#E0E0E0"/>
<path d="M713.44 251.272C713.717 251.514 711.699 254.353 708.919 257.607C706.14 260.862 703.649 263.308 703.36 263.066C703.072 262.823 705.102 259.985 707.881 256.719C710.661 253.453 713.152 251.03 713.44 251.272Z" fill="#E0E0E0"/>
<path d="M711.18 247.822C711.457 248.075 710.027 250.13 707.962 252.38C705.898 254.63 704.029 256.269 703.752 256.015C703.476 255.761 704.906 253.707 706.959 251.468C709.012 249.229 710.903 247.568 711.18 247.822Z" fill="#E0E0E0"/>
<path d="M655.37 401.442C655.682 401.661 654.436 403.935 652.602 406.531C650.768 409.128 649.038 411.043 648.727 410.824C648.416 410.605 649.661 408.331 651.495 405.746C653.329 403.161 655.093 401.223 655.37 401.442Z" fill="#E0E0E0"/>
<path d="M653.029 398.315C653.306 398.569 652.21 400.184 650.595 401.904C648.981 403.623 647.447 404.823 647.135 404.569C646.824 404.315 647.954 402.711 649.569 400.98C651.184 399.249 652.787 398.061 653.029 398.315Z" fill="#E0E0E0"/>
<path d="M53.8145 435.035H65.0711V396.295H53.8145L53.8145 435.035Z" fill="#EBEBEB"/>
<path d="M106.257 397.484C106.257 397.484 105.703 397.114 106.926 395.522C107.087 395.331 107.2 395.103 107.254 394.858C107.309 394.613 107.303 394.359 107.237 394.117C107.171 393.875 107.047 393.653 106.877 393.469C106.706 393.286 106.493 393.147 106.257 393.064C100.94 396.134 93.5699 393.064 93.5699 393.064C93.5699 393.064 102.324 390.352 103.431 387.767C104.261 385.84 102.808 385.632 102.012 385.644C102.9 385.551 104.838 385.24 105.472 384.201C106.257 382.851 103.166 381.259 103.166 381.259C103.33 380.935 103.415 380.577 103.415 380.214C103.415 379.851 103.33 379.493 103.166 379.17C102.67 377.808 91.2517 375.846 91.2517 375.846C94.5733 376.216 95.7959 372.892 95.7959 372.892C95.7959 372.892 101.447 373.019 102.785 370.803C104.123 368.588 101.897 367.976 98.1717 366.13C94.4465 364.283 86.0848 357.405 86.0848 357.405C86.0848 357.405 91.2979 356.909 92.7395 355.674C94.1812 354.44 92.8549 354.209 92.8549 354.209C99.0598 354.82 96.9492 351.497 96.9492 351.497C92.0391 349.979 87.6469 347.127 84.2625 343.257C86.3293 342.765 88.2701 341.845 89.96 340.557C91.9553 338.711 88.2992 338.249 88.2992 338.249C88.2992 338.249 95.6229 337.268 91.4017 334.568C88.2069 332.514 83.0746 329.744 81.483 328.913C83.2361 329.548 87.192 328.786 87.192 328.786C91.8053 326.697 87.192 323.616 87.192 323.616C81.7598 320.512 73.8133 312.734 73.8133 312.734C73.8133 312.734 77.8039 314.823 79.7991 314.211C81.7944 313.599 77.5847 311.13 77.5847 311.13C77.5847 311.13 79.6838 311.753 80.5719 311.13C81.4599 310.507 78.2652 307.668 78.2652 307.668C73.4904 304.564 67.5969 296.405 65.1287 292.897C62.6606 296.359 56.7786 304.564 51.9923 307.668C51.9923 307.668 48.7745 310.495 49.6856 311.13C50.5967 311.765 52.6843 311.13 52.6843 311.13C52.6843 311.13 48.4746 313.588 50.4699 314.211C52.4651 314.834 56.3749 312.734 56.3749 312.734C56.3749 312.734 48.44 320.512 42.9617 323.582C42.9617 323.582 38.3483 326.663 42.9617 328.752C42.9617 328.752 46.9176 329.513 48.6591 328.878C47.0675 329.709 41.9467 332.479 38.7405 334.533C34.5308 337.233 41.8429 338.214 41.8429 338.214C41.8429 338.214 38.1869 338.711 40.1821 340.522C42.1774 342.334 46.0641 343.223 46.0641 343.223C42.658 347.1 38.2415 349.952 33.3083 351.462C33.3083 351.462 31.1977 354.786 37.4141 354.174C37.4141 354.174 36.0763 354.416 37.5179 355.64C38.9596 356.863 44.1727 357.371 44.1727 357.371C44.1727 357.371 35.8571 364.295 32.0857 366.095C28.3143 367.895 26.0999 368.553 27.4724 370.769C28.8449 372.984 34.4501 372.857 34.4501 372.857C34.4501 372.857 35.6726 376.181 38.9942 375.812C38.9942 375.812 27.5762 377.773 27.0803 379.135C26.9222 379.461 26.84 379.818 26.84 380.18C26.84 380.541 26.9222 380.898 27.0803 381.224C27.0803 381.224 24.0355 382.816 24.7736 384.167C25.3618 385.205 27.2994 385.517 28.2336 385.609C27.4493 385.609 25.9269 385.805 26.815 387.732C27.9683 390.317 36.6875 393.029 36.6875 393.029C36.6875 393.029 29.2485 396.099 23.9317 393.029C23.6952 393.112 23.4825 393.251 23.3117 393.435C23.141 393.618 23.0174 393.841 22.9515 394.082C22.8857 394.324 22.8796 394.579 22.9339 394.823C22.9881 395.068 23.1009 395.296 23.2627 395.487C24.4853 397.08 23.9317 397.449 23.9317 397.449C23.9317 397.449 21.1637 395.36 22.3747 398.603C23.5857 401.846 29.9867 403.762 29.9867 403.762C29.9867 403.762 26.3191 404.373 27.4378 406.335C28.5565 408.297 33.2045 410.639 38.3022 411.136C43.3999 411.632 50.2738 409.785 50.2738 409.785C50.2738 409.785 45.6605 412.243 48.8321 413.594C52.0038 414.944 55.7521 411.874 55.7521 411.874C55.7521 411.874 55.0832 415.025 57.7474 413.94C59.5134 413.165 61.1447 412.113 62.5799 410.824C62.5799 410.824 63.4103 415.44 65.0711 414.355C66.7319 415.509 67.5623 410.824 67.5623 410.824C69.0098 412.134 70.6566 413.206 72.4409 413.997C75.1051 415.082 74.4361 411.932 74.4361 411.932C74.4361 411.932 78.1037 415.001 81.3561 413.651C84.6085 412.301 79.9145 409.843 79.9145 409.843C79.9145 409.843 86.8345 411.69 91.8976 411.193C96.9607 410.697 101.655 408.366 102.762 406.393C103.869 404.419 100.213 403.819 100.213 403.819C100.213 403.819 106.637 401.846 107.86 398.649C109.082 395.453 106.257 397.484 106.257 397.484Z" fill="#F5F5F5"/>
<path d="M77.1572 322.647L76.985 322.566C77.0463 322.584 77.1045 322.611 77.1572 322.647Z" fill="black"/>
<path d="M163.162 435.035H171.328V406.935H163.162V435.035Z" fill="#EBEBEB"/>
<path d="M201.199 407.8C201.199 407.8 200.795 407.535 201.683 406.381C201.795 406.24 201.872 406.074 201.908 405.898C201.944 405.721 201.938 405.539 201.891 405.365C201.844 405.191 201.757 405.031 201.637 404.896C201.516 404.762 201.367 404.658 201.199 404.592C197.335 406.82 191.972 404.592 191.972 404.592C191.972 404.592 198.327 402.631 199.135 400.761C199.734 399.353 198.673 399.203 198.097 399.215C198.742 399.145 200.149 398.915 200.576 398.176C201.141 397.184 198.927 396.03 198.927 396.03C199.045 395.795 199.106 395.536 199.106 395.274C199.106 395.011 199.045 394.752 198.927 394.518C198.569 393.537 190.288 392.106 190.288 392.106C190.995 392.153 191.697 391.971 192.292 391.586C192.886 391.201 193.34 390.635 193.587 389.971C193.587 389.971 197.681 390.052 198.65 388.448C199.619 386.844 198.004 386.394 195.271 385.055C192.537 383.717 186.506 378.731 186.506 378.731C186.506 378.731 190.288 378.373 191.326 377.485C192.364 376.596 191.407 376.412 191.407 376.412C195.917 376.85 194.383 374.45 194.383 374.45C190.81 373.357 187.615 371.286 185.156 368.472C186.699 368.131 188.15 367.462 189.412 366.51C190.865 365.172 188.259 364.814 188.259 364.814C188.259 364.814 193.564 364.098 190.565 362.137C188.259 360.648 184.522 358.675 183.368 358.04C184.742 358.268 186.147 358.236 187.509 357.948C190.888 356.436 187.509 354.197 187.509 354.197C183.565 351.97 177.775 346.35 177.775 346.35C177.775 346.35 180.67 347.873 182.123 347.423C183.576 346.973 180.508 345.196 180.508 345.196C180.508 345.196 182.042 345.646 182.676 345.196C183.311 344.746 180.993 342.703 180.993 342.703C177.533 340.395 173.254 334.533 171.466 331.983C169.678 334.533 165.4 340.441 161.94 342.703C161.94 342.703 159.633 344.746 160.244 345.196C160.855 345.646 162.424 345.196 162.424 345.196C162.424 345.196 159.368 346.985 160.809 347.423C162.251 347.862 165.157 346.35 165.157 346.35C165.157 346.35 159.391 351.97 155.423 354.197C155.423 354.197 152.044 356.436 155.423 357.948C156.786 358.236 158.19 358.268 159.564 358.04C158.41 358.64 154.685 360.648 152.367 362.137C149.311 364.098 154.616 364.814 154.616 364.814C154.616 364.814 151.963 365.172 153.463 366.51C154.724 367.462 156.176 368.131 157.718 368.472C155.257 371.283 152.062 373.353 148.492 374.45C148.492 374.45 146.969 376.85 151.467 376.412C151.467 376.412 150.51 376.585 151.548 377.485C152.586 378.385 156.38 378.731 156.38 378.731C156.38 378.731 150.349 383.728 147.615 385.055C144.882 386.382 143.267 386.844 144.236 388.448C145.205 390.052 149.299 389.971 149.299 389.971C149.546 390.635 150 391.201 150.594 391.586C151.189 391.971 151.891 392.153 152.598 392.106C152.598 392.106 144.317 393.537 143.948 394.518C143.833 394.753 143.774 395.012 143.774 395.274C143.774 395.536 143.833 395.794 143.948 396.03C143.948 396.03 141.745 397.184 142.298 398.176C142.737 398.915 144.132 399.145 144.789 399.215C144.213 399.215 143.152 399.353 143.751 400.761C144.559 402.631 150.914 404.592 150.914 404.592C150.914 404.592 145.516 406.82 141.687 404.592C141.519 404.658 141.37 404.762 141.249 404.896C141.129 405.031 141.042 405.191 140.995 405.365C140.948 405.539 140.942 405.721 140.978 405.898C141.014 406.074 141.091 406.24 141.203 406.381C142.091 407.535 141.687 407.8 141.687 407.8C141.687 407.8 139.669 406.289 140.534 408.608C141.399 410.928 146.081 412.347 146.081 412.347C146.081 412.347 143.429 412.797 144.236 414.228C145.043 415.659 148.411 417.344 152.113 417.69C155.04 417.789 157.966 417.459 160.798 416.709C160.798 416.709 157.418 418.498 159.76 419.479C162.101 420.46 164.742 418.221 164.742 418.221C164.742 418.221 164.258 420.529 166.184 419.721C167.481 419.149 168.677 418.369 169.725 417.413C169.725 417.413 170.324 420.771 171.535 419.975C172.689 420.771 173.346 417.413 173.346 417.413C174.391 418.368 175.582 419.147 176.875 419.721C178.813 420.506 178.328 418.221 178.328 418.221C178.328 418.221 180.981 420.46 183.311 419.479C185.641 418.498 182.273 416.709 182.273 416.709C185.104 417.459 188.03 417.789 190.957 417.69C194.648 417.333 198.027 415.636 198.835 414.228C199.642 412.82 196.989 412.347 196.989 412.347C196.989 412.347 201.603 410.928 202.537 408.608C203.471 406.289 201.199 407.8 201.199 407.8Z" fill="#F5F5F5"/>
<path d="M180.092 353.528L179.966 353.47C180.013 353.477 180.056 353.497 180.092 353.528Z" fill="black"/>
<path d="M111.723 435.046H126.982V382.562H111.723V435.046Z" fill="#EBEBEB"/>
<path d="M177.221 382.378C177.221 382.378 176.472 381.882 178.132 379.712C179.793 377.543 177.221 376.377 177.221 376.377C170.013 380.543 159.921 376.377 159.921 376.377C159.921 376.377 171.847 372.742 173.323 369.28C174.476 366.66 172.458 366.372 171.385 366.395C172.596 366.268 175.226 365.841 175.999 364.445C177.048 362.61 172.919 360.44 172.919 360.44C173.137 360.001 173.25 359.517 173.25 359.027C173.25 358.536 173.137 358.053 172.919 357.613C172.25 355.778 156.773 353.112 156.773 353.112C161.282 353.609 162.931 349.12 162.931 349.12C162.931 349.12 170.59 349.281 172.4 346.281C174.211 343.28 171.189 342.449 166.08 339.957C160.971 337.464 149.714 328.117 149.714 328.117C149.714 328.117 156.773 327.459 158.722 325.809C160.671 324.159 158.872 323.812 158.872 323.812C167.291 324.643 164.431 320.143 164.431 320.143C157.739 318.105 151.748 314.24 147.131 308.983C147.131 308.983 152.39 307.829 155.089 305.314C157.788 302.798 152.84 302.152 152.84 302.152C152.84 302.152 162.758 300.825 157.049 297.155C152.713 294.374 145.77 290.623 143.613 289.492C145.92 290.369 151.34 289.319 151.34 289.319C157.649 286.492 151.34 282.326 151.34 282.326C143.982 278.16 133.164 267.659 133.164 267.659C133.164 267.659 138.573 270.498 141.237 269.667C143.901 268.836 138.239 265.501 138.239 265.501C138.239 265.501 141.087 266.332 142.287 265.501C143.486 264.67 139.138 260.885 139.138 260.885C132.656 256.673 124.675 245.617 121.331 240.874C117.998 245.617 110.016 256.673 103.535 260.885C103.535 260.885 99.1751 264.716 100.375 265.501C101.574 266.285 104.434 265.501 104.434 265.501C104.434 265.501 98.6677 268.836 101.436 269.667C104.204 270.498 109.509 267.659 109.509 267.659C109.509 267.659 98.6907 278.16 91.3325 282.326C91.3325 282.326 85.0237 286.492 91.3325 289.319C91.3325 289.319 96.6955 290.369 99.0598 289.492C96.9031 290.646 89.96 294.374 85.6235 297.155C79.8568 300.825 89.8331 302.152 89.8331 302.152C89.8331 302.152 84.8738 302.821 87.5265 305.314C90.1791 307.806 95.496 308.983 95.496 308.983C90.8786 314.24 84.8876 318.105 78.196 320.143C78.196 320.143 75.3357 324.643 83.7551 323.812C83.7551 323.812 81.9443 324.147 83.905 325.809C85.8657 327.471 92.9125 328.117 92.9125 328.117C92.9125 328.117 81.6445 337.453 76.5352 339.957C71.4259 342.461 68.4619 343.28 70.2265 346.281C71.9911 349.281 79.6953 349.12 79.6953 349.12C79.6953 349.12 81.3446 353.609 85.8541 353.112C85.8541 353.112 70.3764 355.778 69.7075 357.613C69.4899 358.053 69.3768 358.536 69.3768 359.027C69.3768 359.517 69.4899 360.001 69.7075 360.44C69.7075 360.44 65.567 362.61 66.6281 364.445C67.4239 365.841 70.0881 366.268 71.2414 366.395C70.1688 366.395 68.1966 366.66 69.3153 369.28C70.8147 372.742 82.6825 376.435 82.6825 376.435C82.6825 376.435 72.6254 380.601 65.3825 376.435C65.3825 376.435 62.8336 377.589 64.4829 379.77C66.1321 381.951 65.3825 382.436 65.3825 382.436C65.3825 382.436 61.6341 379.608 63.2834 383.936C64.9327 388.263 73.6634 390.929 73.6634 390.929C73.6634 390.929 68.2312 392.083 70.2034 394.391C72.8791 397.553 79.2917 400.75 84.9315 400.888C90.3868 400.797 95.8208 400.182 101.159 399.053C101.159 399.053 94.8501 402.388 99.1982 404.212C103.546 406.035 108.517 401.904 108.517 401.904C108.517 401.904 107.618 406.173 111.216 404.708C113.64 403.639 115.875 402.186 117.836 400.403C117.836 400.403 118.989 406.693 121.204 405.192C123.51 406.693 124.583 400.403 124.583 400.403C126.541 402.184 128.772 403.637 131.192 404.708C134.802 406.173 133.902 401.904 133.902 401.904C133.902 401.904 138.861 406.069 143.209 404.212C147.557 402.354 141.26 399.053 141.26 399.053C141.26 399.053 150.579 401.546 157.488 400.888C164.396 400.23 170.705 397.057 172.216 394.391C173.727 391.725 168.756 390.929 168.756 390.929C168.756 390.929 177.463 388.263 179.136 383.936C180.808 379.608 177.221 382.378 177.221 382.378Z" fill="#EBEBEB"/>
<path d="M143.371 282.73L143.129 282.615C143.215 282.641 143.296 282.68 143.371 282.73Z" fill="black"/>
<path d="M195.225 214.782C194.431 212.335 193.309 210.006 191.892 207.858C191.171 206.787 190.242 205.873 189.16 205.169C188.078 204.465 186.865 203.986 185.594 203.762C184.322 203.574 183.023 203.812 181.899 204.438C180.776 205.064 179.889 206.043 179.378 207.224C179.009 201.731 178.225 196.099 175.48 191.322C172.735 186.544 167.602 182.805 162.113 183.14C156.934 183.463 152.505 187.306 150.037 191.876C147.569 196.445 146.727 201.685 145.92 206.878C143.959 204.466 139.807 205.216 137.766 207.558C135.724 209.901 135.194 213.167 134.755 216.236H196.517L195.225 214.782Z" fill="#F5F5F5"/>
<path d="M268.265 115.781C267.788 114.308 267.113 112.906 266.259 111.615C265.825 110.972 265.267 110.423 264.617 110C263.967 109.578 263.239 109.291 262.476 109.157C261.709 109.048 260.927 109.195 260.252 109.574C259.577 109.954 259.045 110.545 258.739 111.257C258.704 107.946 257.915 104.686 256.432 101.725C254.783 98.8517 251.703 96.6129 248.359 96.8091C245.256 97.0053 242.592 99.3133 241.116 102.048C239.793 104.877 238.955 107.908 238.636 111.015C237.483 109.572 234.98 110.022 233.746 111.43C232.652 112.952 232.027 114.762 231.947 116.635H269.015L268.265 115.781Z" fill="#F5F5F5"/>
<path d="M438.267 106.849C437.374 104.095 436.113 101.475 434.518 99.0593C433.71 97.8541 432.668 96.8243 431.453 96.0312C430.238 95.2381 428.876 94.698 427.448 94.4433C426.013 94.2378 424.55 94.5121 423.286 95.2236C422.022 95.9352 421.029 97.0441 420.459 98.3785C420.056 92.2161 419.179 85.8922 416.1 80.5376C413.02 75.1831 407.254 70.971 401.106 71.3056C395.34 71.6634 390.323 75.9216 387.555 81.1146C384.787 86.3076 383.841 92.1238 382.941 97.8823C380.738 95.1704 376.09 96.0243 373.784 98.6439C371.477 101.263 370.912 105.014 370.428 108.476H439.754L438.267 106.849Z" fill="#F5F5F5"/>
<path d="M800.413 105.106C799.582 102.622 798.418 100.262 796.953 98.09C796.227 97.0119 795.291 96.0914 794.201 95.3836C793.111 94.6757 791.89 94.195 790.61 93.9702C789.323 93.7832 788.01 94.0283 786.877 94.6672C785.744 95.3062 784.854 96.3029 784.347 97.5015C783.978 91.9623 783.194 86.2846 780.426 81.484C777.658 76.6833 772.491 72.8982 766.955 73.2444C761.742 73.556 757.279 77.4334 754.799 82.0379C752.319 86.6423 751.466 91.9161 750.647 97.0399C748.675 94.6165 744.5 95.3781 742.435 97.7323C740.371 100.086 739.84 103.375 739.402 106.48H801.613L800.413 105.106Z" fill="#F5F5F5"/>
<path d="M499.243 73.4752C498.604 71.4817 497.692 69.5865 496.533 67.8437C495.949 66.9739 495.196 66.2312 494.318 65.66C493.44 65.0889 492.455 64.7012 491.424 64.5201C490.388 64.3685 489.332 64.5649 488.419 65.0787C487.507 65.5924 486.791 66.3944 486.384 67.359C486.084 62.9045 485.45 58.3347 483.224 54.4688C480.998 50.6029 476.834 47.5448 472.371 47.8218C468.173 48.0872 464.574 51.203 462.579 54.9189C460.584 58.6347 459.892 62.8699 459.234 67.0359C457.643 65.0741 454.275 65.6972 452.614 67.5898C450.953 69.4823 450.527 72.1365 450.181 74.6292H500.293L499.243 73.4752Z" fill="#F5F5F5"/>
<path d="M157.199 131.764C155.886 127.681 154.02 123.798 151.652 120.224C149.138 116.762 145.458 113.946 141.214 113.427C136.97 112.907 132.287 115.192 130.903 119.197C130.292 110.08 129 100.733 124.445 92.8277C119.889 84.9228 111.389 78.7836 102.278 79.3375C93.6853 79.8683 86.3385 86.2615 82.2442 93.8202C78.1499 101.379 76.7544 110.092 75.4165 118.597C72.1641 114.604 65.2902 115.85 61.8879 119.751C58.4856 123.651 57.6321 129.052 56.9055 134.152H159.333L157.199 131.764Z" fill="#F5F5F5"/>
<path d="M354.039 532.19H97.0992L113.327 516.115H370.278L354.039 532.19Z" fill="#F5F5F5"/>
<path d="M770.646 532.19H513.695L529.934 516.115H786.873L770.646 532.19Z" fill="#F5F5F5"/>
<path d="M833.791 448.906C833.791 449.068 650.688 449.206 424.865 449.206C199.042 449.206 15.916 449.079 15.916 448.906C15.916 448.733 198.973 448.606 424.865 448.606C650.757 448.606 833.791 448.744 833.791 448.906Z" fill="#263238"/>
<path d="M833.791 436.501C833.791 436.674 650.688 436.801 424.865 436.801C199.042 436.801 15.916 436.674 15.916 436.501C15.916 436.327 198.973 436.212 424.865 436.212C650.757 436.212 833.791 436.339 833.791 436.501Z" fill="#263238"/>
<path d="M160.348 183.671C183.304 183.671 201.914 165.05 201.914 142.081C201.914 119.111 183.304 100.49 160.348 100.49C137.392 100.49 118.782 119.111 118.782 142.081C118.782 165.05 137.392 183.671 160.348 183.671Z" fill="#FF9874"/>
<g opacity="0.9">
<path d="M160.348 183.671C183.304 183.671 201.914 165.05 201.914 142.081C201.914 119.111 183.304 100.49 160.348 100.49C137.392 100.49 118.782 119.111 118.782 142.081C118.782 165.05 137.392 183.671 160.348 183.671Z" fill="white"/>
</g>
<path d="M160.348 179.17C180.82 179.17 197.416 162.565 197.416 142.081C197.416 121.597 180.82 104.991 160.348 104.991C139.876 104.991 123.28 121.597 123.28 142.081C123.28 162.565 139.876 179.17 160.348 179.17Z" fill="#FF9874"/>
<g opacity="0.6">
<path d="M160.348 179.17C180.82 179.17 197.416 162.565 197.416 142.081C197.416 121.597 180.82 104.991 160.348 104.991C139.876 104.991 123.28 121.597 123.28 142.081C123.28 162.565 139.876 179.17 160.348 179.17Z" fill="white"/>
</g>
<path d="M190.978 145.864C193.061 128.943 181.04 113.537 164.129 111.453C147.217 109.37 131.82 121.398 129.738 138.319C127.655 155.24 139.676 170.646 156.587 172.73C173.499 174.813 188.896 162.785 190.978 145.864Z" fill="#FF9874"/>
<g opacity="0.3">
<path d="M190.978 145.864C193.061 128.943 181.04 113.537 164.129 111.453C147.217 109.37 131.82 121.398 129.738 138.319C127.655 155.24 139.676 170.646 156.587 172.729C173.499 174.813 188.896 162.785 190.978 145.864Z" fill="white"/>
</g>
<path d="M184.74 146.056C186.926 132.581 177.78 119.884 164.313 117.696C150.845 115.509 138.155 124.66 135.969 138.135C133.783 151.611 142.928 164.308 156.396 166.495C169.864 168.682 182.553 159.532 184.74 146.056Z" fill="#FF9874"/>
<path opacity="0.3" d="M430.059 581.268C623.376 581.268 780.09 553.552 780.09 519.362C780.09 485.172 623.376 457.456 430.059 457.456C236.743 457.456 80.0285 485.172 80.0285 519.362C80.0285 553.552 236.743 581.268 430.059 581.268Z" fill="black"/>
<path d="M365.579 545.924L749.262 452.639L759.992 423.409C759.992 423.409 760.48 404.165 751.859 386.207C743.238 368.25 710.967 373.336 696.197 388.48C681.427 403.614 670.064 415.728 670.064 415.728L494.799 448.466C494.799 448.466 471.627 419.506 444.351 419.506C417.076 419.506 395.118 455.836 385.272 485.357C375.425 514.878 365.579 545.914 365.579 545.914V545.924Z" fill="#263238" stroke="#263238" stroke-linecap="round" stroke-linejoin="round"/>
<path d="M696.197 388.491C677.677 388.491 661.027 415.603 661.027 451.041C661.027 486.478 676.047 515.2 694.566 515.2L730.442 516.819V388.501H696.197V388.491Z" fill="#263238" stroke="#263238" stroke-linecap="round" stroke-linejoin="round"/>
<path d="M730.442 516.808C748.964 516.808 763.98 488.084 763.98 452.65C763.98 417.216 748.964 388.491 730.442 388.491C711.919 388.491 696.903 417.216 696.903 452.65C696.903 488.084 711.919 516.808 730.442 516.808Z" fill="#5E5E5E" stroke="#263238" stroke-linecap="round" stroke-linejoin="round"/>
<path d="M732.779 510.819C748.284 510.819 760.854 485.556 760.854 454.393C760.854 423.23 748.284 397.968 732.779 397.968C717.273 397.968 704.703 423.23 704.703 454.393C704.703 485.556 717.273 510.819 732.779 510.819Z" fill="#263238" stroke="#263238" stroke-linecap="round" stroke-linejoin="round"/>
<path d="M726.588 399.359C725.487 399.857 724.407 400.48 723.358 401.227L728.063 408.389C728.063 408.389 737.577 415.852 737.172 419.714C736.777 423.575 734.004 427.945 732.81 429.492C731.626 431.038 725.082 436.177 725.082 436.177L723.296 443.38C723.296 443.38 731.615 439.259 733.204 435.658C734.794 432.056 742.719 411.213 742.314 407.611C741.919 404.009 740.922 402.462 740.922 402.462L738.055 398.975C737.743 398.86 737.442 398.736 737.131 398.642L726.567 399.348L726.588 399.359ZM739.758 412.251L730.784 402.877C729.393 403.355 728.271 403.76 728.271 403.76L730.649 402.732L730.784 402.877C732.695 402.224 735.105 401.445 735.801 401.445C736.985 401.445 738.969 403.251 739.758 406.594C740.548 409.936 739.758 412.251 739.758 412.251Z" fill="#999999"/>
<path d="M730.784 402.877L739.758 412.251C739.758 412.251 740.548 409.936 739.758 406.594C738.969 403.251 736.985 401.445 735.801 401.445C735.105 401.445 732.695 402.224 730.784 402.877ZM730.784 402.877C729.393 403.355 728.271 403.76 728.271 403.76L730.649 402.732L730.784 402.877ZM726.588 399.359C725.487 399.857 724.407 400.48 723.358 401.227L728.063 408.389C728.063 408.389 737.577 415.852 737.172 419.714C736.777 423.575 734.004 427.945 732.81 429.492C731.626 431.038 725.082 436.177 725.082 436.177L723.296 443.38C723.296 443.38 731.615 439.259 733.204 435.658C734.794 432.056 742.719 411.213 742.314 407.611C741.919 404.009 740.922 402.462 740.922 402.462L738.055 398.975C737.743 398.86 737.442 398.736 737.131 398.642L726.567 399.348L726.588 399.359Z" stroke="#263238" stroke-linecap="round" stroke-linejoin="round"/>
<path d="M720.533 502.048C720.533 502.048 727.866 499.214 728.852 498.446C729.839 497.678 729.05 502.308 727.668 504.363C726.277 506.418 725.092 507.197 725.092 507.197L720.533 502.048Z" fill="white" stroke="#263238" stroke-linecap="round" stroke-linejoin="round"/>
<path d="M752.389 414.046L752.233 414.565C752.233 414.565 748.473 412.759 748.473 414.306C748.473 415.852 745.897 419.714 745.305 420.222C744.713 420.741 738.969 428.973 738.969 428.973L729.86 443.38L752.648 422.029C752.648 422.029 752.451 418.427 754.435 427.945C756.419 437.464 756.024 442.872 756.024 443.64C756.024 444.408 745.326 448.788 746.51 449.816C747.694 450.843 747.497 452.899 749.283 452.65C751.07 452.4 758.995 450.594 758.995 450.594L755.432 460.632V471.437C755.432 471.437 744.536 462.428 738.398 460.891C732.259 459.345 725.913 460.632 725.913 460.632L727.897 472.984C727.897 472.984 722.548 464.753 721.561 463.725C720.574 462.697 718.985 463.984 718.985 463.984L716.409 467.067C716.409 467.067 715.422 477.613 713.833 479.42C713.023 480.343 711.642 481.122 710.489 481.672C709.471 478.319 707.892 471.448 707.892 471.448C707.103 467.586 707.497 465.531 707.497 465.531L714.031 467.337C714.031 467.337 718.788 460.902 718.985 460.134C719.182 459.365 719.182 454.726 718.59 452.411C717.998 450.096 716.212 448.809 716.212 448.809L719.182 441.346L717.791 440.578L714.425 449.837L714.623 459.355L706.895 456.521C706.698 441.595 709.668 431.568 709.668 431.568L715.017 430.8C715.017 430.8 717.001 430.54 717.593 431.059C718.185 431.578 721.551 441.865 721.551 441.865L722.34 439.29C722.34 439.29 719.961 430.281 717.978 424.115C715.994 417.939 713.023 419.994 713.023 419.994C714.81 414.586 718.767 409.188 718.767 409.188L722.33 414.846L727.679 411.763L726.692 407.642L723.379 401.248C712.504 409.022 704.724 429.886 704.724 454.414C704.724 464.659 706.095 474.24 708.463 482.523C708.495 482.648 708.526 482.752 708.567 482.866C708.598 482.97 708.63 483.084 708.661 483.187C713.553 499.733 722.527 510.829 732.799 510.829C748.307 510.829 760.875 485.565 760.875 454.404C760.875 438.595 757.634 424.302 752.42 414.057L752.389 414.046ZM717.365 497.668C716.575 496.64 713.002 489.436 713.002 489.436C713.002 489.436 717.562 484.288 718.746 482.492C719.93 480.686 720.335 468.593 720.335 468.593C720.335 468.593 727.274 480.945 728.458 485.056C729.642 489.177 728.852 490.713 727.668 492.519C726.484 494.325 718.154 498.695 717.365 497.668ZM756.003 481.454C756.003 481.454 752.243 474.51 750.062 475.797C747.881 477.084 747.289 478.88 745.305 480.686C743.321 482.492 738.169 480.945 738.169 480.945C738.169 480.945 743.518 496.38 744.308 498.695C745.097 501.01 743.124 504.103 741.929 505.131C740.745 506.158 739.156 505.39 737.764 505.39C736.372 505.39 733.402 506.158 733.402 506.158L728.842 507.705C728.842 507.705 732.207 500.501 732.602 498.187C732.997 495.872 732.997 487.641 732.997 487.641L738.543 500.761L742.303 498.955C742.303 498.955 731.802 472.714 731.21 471.936C730.618 471.167 729.621 466.787 729.621 465.5C729.621 464.213 728.634 462.158 728.634 462.158C728.634 462.158 735.967 462.417 741.119 466.278C746.271 470.14 754.985 474.769 755.577 475.797C756.169 476.825 755.972 481.454 755.972 481.454H756.003Z" fill="#999999" stroke="#263238" stroke-linecap="round" stroke-linejoin="round"/>
<path d="M741.929 452.65L731.231 446.992L726.869 449.048C726.869 449.048 732.02 452.131 735.583 453.418C739.146 454.705 741.919 452.65 741.919 452.65H741.929Z" fill="#999999" stroke="#263238" stroke-linecap="round" stroke-linejoin="round"/>
<path d="M398.338 434.246C373.608 434.246 353.572 463.756 353.572 500.159C353.572 536.562 373.618 566.072 398.338 566.072H444.06V434.246H398.338Z" fill="#263238" stroke="#263238" stroke-linecap="round" stroke-linejoin="round"/>
<path d="M444.06 566.072C468.784 566.072 488.827 536.562 488.827 500.159C488.827 463.756 468.784 434.246 444.06 434.246C419.337 434.246 399.294 463.756 399.294 500.159C399.294 536.562 419.337 566.072 444.06 566.072Z" fill="#5E5E5E" stroke="#263238" stroke-linecap="round" stroke-linejoin="round"/>
<path d="M447.176 559.917C467.873 559.917 484.651 533.966 484.651 501.955C484.651 469.943 467.873 443.993 447.176 443.993C426.479 443.993 409.701 469.943 409.701 501.955C409.701 533.966 426.479 559.917 447.176 559.917Z" fill="#263238" stroke="#263238" stroke-linecap="round" stroke-linejoin="round"/>
<path d="M438.909 445.415C437.434 445.923 436 446.567 434.598 447.335L440.882 454.694C440.882 454.694 453.575 462.355 453.045 466.32C452.515 470.285 448.817 474.78 447.228 476.368C445.639 477.956 436.914 483.239 436.914 483.239L434.536 490.64C434.536 490.64 445.65 486.416 447.758 482.71C449.877 479.004 460.451 457.601 459.921 453.895C459.391 450.19 458.072 448.612 458.072 448.612L454.25 445.031C453.845 444.906 453.429 444.792 453.014 444.688L438.909 445.415ZM456.483 458.66L444.497 449.027C442.648 449.515 441.142 449.94 441.142 449.94L444.32 448.882L444.507 449.027C447.062 448.352 450.282 447.553 451.196 447.553C452.785 447.553 455.423 449.401 456.483 452.836C457.542 456.272 456.483 458.649 456.483 458.649V458.66Z" fill="#999999" stroke="#263238" stroke-linecap="round" stroke-linejoin="round"/>
<path d="M430.838 550.907C430.838 550.907 440.622 548 441.952 547.201C443.271 546.412 442.212 551.166 440.363 553.284C438.514 555.401 436.925 556.19 436.925 556.19L430.838 550.907Z" fill="white" stroke="#263238" stroke-linecap="round" stroke-linejoin="round"/>
<path d="M473.361 460.507L473.153 461.037C473.153 461.037 468.126 459.189 468.126 460.777C468.126 462.365 464.688 466.33 463.899 466.86C463.11 467.389 455.434 475.849 455.434 475.849L443.271 490.651L473.683 468.707C473.683 468.707 473.423 465.012 476.062 474.79C478.71 484.568 478.181 490.121 478.181 490.91C478.181 491.699 463.899 496.194 465.488 497.252C467.077 498.311 466.807 500.429 469.186 500.159C471.564 499.899 482.148 498.041 482.148 498.041L477.391 508.349V519.455C477.391 519.455 462.839 510.207 454.644 508.619C446.449 507.03 437.984 508.359 437.984 508.359L440.633 521.043C440.633 521.043 433.487 512.584 432.168 511.525C430.849 510.466 428.73 511.784 428.73 511.784L425.292 514.961C425.292 514.961 423.973 525.797 421.854 527.645C420.773 528.59 418.935 529.399 417.387 529.96C416.037 526.514 413.918 519.455 413.918 519.455C412.859 515.49 413.389 513.373 413.389 513.373L422.113 515.22C422.113 515.22 428.46 508.608 428.73 507.819C428.989 507.03 428.989 502.266 428.2 499.889C427.411 497.512 425.022 496.183 425.022 496.183L428.989 488.523L427.14 487.734L422.643 497.252L422.903 507.03L412.589 504.124C412.329 488.793 416.297 478.485 416.297 478.485L423.443 477.697C423.443 477.697 426.091 477.437 426.881 477.956C427.67 478.485 432.168 489.063 432.168 489.063L433.227 486.416C433.227 486.416 430.049 477.167 427.411 470.825C424.772 464.483 420.794 466.6 420.794 466.6C423.173 461.047 428.46 455.494 428.46 455.494L433.217 461.307L440.363 458.13L439.044 453.906L434.619 447.335C420.098 455.328 409.712 476.752 409.712 501.955C409.712 512.48 411.54 522.331 414.708 530.832C414.749 530.956 414.801 531.071 414.843 531.185C414.884 531.299 414.915 531.413 414.957 531.517C421.49 548.509 433.466 559.917 447.176 559.917C467.877 559.917 484.651 533.967 484.651 501.955C484.651 485.71 480.331 471.033 473.361 460.507ZM426.6 546.412C425.541 545.353 420.784 537.952 420.784 537.952C420.784 537.952 426.87 532.669 428.449 530.811C430.038 528.963 430.568 516.539 430.568 516.539C430.568 516.539 439.823 529.223 441.412 533.458C443.001 537.683 441.941 539.271 440.352 541.118C438.763 542.966 427.66 547.461 426.6 546.402V546.412ZM478.181 529.763C478.181 529.763 473.153 522.621 470.245 523.95C467.337 525.278 466.548 527.126 463.899 528.974C461.25 530.821 454.374 529.233 454.374 529.233C454.374 529.233 461.52 545.094 462.569 547.471C463.618 549.848 460.98 553.024 459.391 554.083C457.802 555.142 455.693 554.342 453.834 554.342C451.975 554.342 448.018 555.131 448.018 555.131L441.931 556.72C441.931 556.72 446.429 549.319 446.958 546.942C447.488 544.565 447.488 536.105 447.488 536.105L454.894 549.588L459.921 547.741C459.921 547.741 445.899 520.784 445.109 519.985C444.32 519.196 442.991 514.701 442.991 513.373C442.991 512.044 441.671 509.937 441.671 509.937C441.671 509.937 451.456 510.196 458.332 514.162C465.208 518.127 476.851 522.881 477.64 523.939C478.43 524.998 478.17 529.752 478.17 529.752L478.181 529.763Z" fill="#999999" stroke="#263238" stroke-linecap="round" stroke-linejoin="round"/>
<path d="M459.401 500.159L445.12 494.346L439.303 496.464C439.303 496.464 446.179 499.64 450.936 500.958C455.693 502.276 459.401 500.169 459.401 500.169V500.159Z" fill="#999999" stroke="#263238" stroke-linecap="round" stroke-linejoin="round"/>
<path d="M373.691 317.253C368.092 318.26 362.681 320.045 357.55 322.505C353.987 324.218 348.617 326.616 340.64 329.844C321.176 337.722 264.755 375.153 259.832 377.114C254.909 379.076 247.763 380.311 246.776 380.561C245.789 380.81 214.993 381.796 198.977 384.744C182.96 387.702 165.22 397.303 156.111 402.473C147.002 407.642 133.686 418.479 131.962 419.704C130.238 420.939 119.893 423.15 117.421 428.08C114.949 433.011 114.71 440.64 115.208 443.837C115.707 447.034 115.208 452.452 115.208 452.452C115.208 452.452 102.89 513.269 102.152 516.466C101.415 519.663 96.2422 530.998 98.2053 533.458C100.179 535.918 106.338 541.087 113.972 542.322C121.606 543.558 144.769 541.835 144.769 541.835L219.179 551.187C219.179 551.187 241.105 563.01 250.962 563.498C260.819 563.986 328.322 566.456 333.006 565.47C337.691 564.484 394.36 557.093 394.36 557.093C394.36 557.093 389.925 521.386 393.623 501.446C397.321 481.506 409.141 452.203 420.483 441.616C431.815 431.028 444.632 423.638 462.123 429.793C479.614 435.948 489.72 455.649 489.471 482.243C489.222 508.837 479.126 545.519 479.126 545.519L525.939 535.918L655.533 506.615C655.533 506.615 701.359 501.695 701.359 500.948C701.359 500.2 695.2 473.866 694.213 454.414C693.226 434.962 707.02 407.881 716.877 396.058C726.734 384.235 740.278 386.944 748.411 393.598C756.543 400.241 759.992 423.388 759.992 423.388L762.703 427.821C762.703 427.821 761.965 406.895 758.268 393.598C754.57 380.301 751.371 368.727 742.989 360.112C734.607 351.497 724.511 349.524 717.365 349.275C710.219 349.026 694.94 345.829 692.977 345.092C691.004 344.355 590.232 318.748 590.232 318.748C590.232 318.748 541.944 308.409 482.315 308.897C426.393 309.354 419.455 308.959 373.691 317.232V317.253Z" fill="#37AFE1"/>
<path d="M344.255 559.398C346.052 556.699 355.057 527.905 355.057 527.905L335.696 530.603L139.419 521.158L103.845 508.297C102.931 512.76 102.297 515.833 102.142 516.487C101.404 519.684 96.2317 531.019 98.1948 533.479C100.168 535.939 106.328 541.108 113.962 542.343C121.596 543.578 144.758 541.855 144.758 541.855L219.168 551.208C219.168 551.208 241.095 563.031 250.951 563.518C260.528 563.996 324.551 566.331 332.445 565.563C338.116 563.124 343.434 560.602 344.234 559.398H344.255Z" fill="#5E5E5E" stroke="#263238" stroke-linecap="round" stroke-linejoin="round"/>
<path d="M127.132 516.715L107.169 512.978L103.139 520.037L100.781 529.441L104.146 531.122C107.512 532.804 108.851 536.499 111.884 538.513C114.907 540.527 120.962 541.876 128.025 540.869C135.088 539.862 144.499 539.188 144.499 539.188L217.122 548.26L223.842 546.921L232.92 536.499L154.875 521.905L139.43 521.158L127.132 516.715Z" fill="#263238" stroke="#263238" stroke-linecap="round" stroke-linejoin="round"/>
<path d="M560.941 313.962C541.259 311.336 513.329 308.658 482.314 308.918C426.393 309.374 419.454 308.98 373.691 317.253C368.092 318.26 362.681 320.045 357.55 322.505C353.987 324.218 348.617 326.616 340.64 329.844C323.482 336.788 277.593 366.703 263.602 375.028C262.668 375.744 257.692 379.471 253.912 380.81C249.726 382.284 247.752 383.519 249.477 384.256C251.201 384.993 392.376 393.857 397.549 393.857C402.721 393.857 462.839 393.12 462.839 393.12C462.839 393.12 467.275 393.369 471.959 389.674C476.643 385.979 501.031 346.836 511.626 334.276C522.22 321.716 542.422 316.059 557.202 314.336C558.521 314.18 559.747 314.066 560.931 313.962H560.941Z" fill="#263238" stroke="#263238" stroke-linecap="round" stroke-linejoin="round"/>
<path d="M361.59 321.727C361.59 321.727 381.304 316.308 436 318.53C490.697 320.741 518.045 323.45 518.294 324.436C518.543 325.422 496.118 351.029 484.537 366.049C472.956 381.069 469.02 387.712 465.81 389.435C462.611 391.159 407.167 391.159 400.27 391.159C393.373 391.159 266.48 384.017 264.516 383.28C262.543 382.543 261.068 381.069 262.792 378.848C264.516 376.637 327.834 337.484 340.651 331.328C353.458 325.173 361.59 321.727 361.59 321.727Z" fill="#263238" stroke="#696969" stroke-linecap="round" stroke-linejoin="round"/>
<path d="M692.977 345.113C692.052 344.77 669.617 339.009 645.936 332.958C638.083 332.958 625.204 332.46 614.869 329.605C598.853 325.173 567.319 318.28 545.143 324.685C522.968 331.089 505.726 358.908 505.726 358.908L484.786 393.38C484.786 393.38 507.211 397.812 541.705 392.394C576.2 386.975 643.214 368.509 655.045 362.105C666.875 355.7 667.852 348.559 667.852 348.559C667.852 348.559 700.393 348.32 703.021 347.344C698.16 346.431 693.953 345.476 692.987 345.113H692.977Z" fill="#5E5E5E" stroke="#263238" stroke-linecap="round" stroke-linejoin="round"/>
<path d="M647.151 354.226C647.151 354.226 649.363 354.476 647.639 351.268C645.915 348.061 628.424 335.262 597.866 330.83C567.319 326.398 552.778 326.398 541.446 331.318C530.114 336.238 510.4 359.884 510.4 359.884L490.198 391.646C490.198 391.646 517.546 392.882 544.894 388.937C572.242 384.993 631.623 366.288 639.008 361.856C646.403 357.423 647.14 354.226 647.14 354.226H647.151Z" fill="#263238" stroke="#263238" stroke-linecap="round" stroke-linejoin="round"/>
<path d="M500.595 375.308L490.198 391.646C490.198 391.646 496.077 391.906 505.113 391.802L500.595 375.308Z" fill="#5E5E5E" stroke="#263238" stroke-linecap="round" stroke-linejoin="round"/>
<path d="M621.776 334.774C621.776 334.774 646.663 339.944 666.127 348.559" stroke="#263238" stroke-linecap="round" stroke-linejoin="round"/>
<path d="M751.526 373.128C749.356 368.291 746.676 363.921 742.989 360.133C742.49 359.624 741.991 359.147 741.493 358.679C737.899 360.112 732.394 362.634 732.394 363.33C732.394 364.316 736.829 365.302 743.238 368.25C746.499 369.755 749.428 371.634 751.526 373.118V373.128Z" fill="#263238" stroke="#263238" stroke-linecap="round" stroke-linejoin="round"/>
<path d="M521.794 405.649C521.794 405.649 517.598 407.362 517.598 409.458C517.598 411.555 517.598 412.126 519.696 412.51C521.794 412.894 535.515 412.323 538.184 411.752C540.854 411.182 542.952 409.272 542.381 407.559C541.809 405.846 541.996 405.078 540.282 404.32C538.569 403.563 533.988 404.32 529.792 404.704C525.596 405.089 521.784 405.659 521.784 405.659L521.794 405.649Z" fill="#263238" stroke="#263238" stroke-linecap="round" stroke-linejoin="round"/>
<path d="M207.296 415.022C207.296 415.022 191.623 419.122 180.53 429.72C169.437 440.318 166.549 449.961 172.574 451.404C178.598 452.847 208.013 456.947 217.423 452.131C226.823 447.314 249.248 432.377 259.375 428.755C269.502 425.143 274.083 421.769 272.4 420.565C270.717 419.361 220.082 413.341 207.296 415.022Z" fill="#263238"/>
<path d="M117.431 428.091C114.969 433.011 114.72 440.65 115.219 443.847C115.707 447.044 115.219 452.463 115.219 452.463C115.219 452.463 105.268 501.571 102.723 513.85C104.925 519.684 113.193 526.337 115.925 528.029C119.062 529.96 188.735 543.454 232.619 542.727C276.503 542.001 346.187 539.592 347.631 539.354C349.074 539.115 349.313 539.115 351.972 536.707C354.621 534.299 375.114 478.641 383.08 461.774C391.036 444.906 395.617 438.398 388.627 432.616C381.637 426.835 352.222 435.99 345.231 438.159C338.241 440.329 273.376 461.286 265.669 462.012C257.952 462.739 220.82 462.739 220.82 462.739L141.736 457.196C141.736 457.196 128.233 447.802 125.823 438.398C123.414 429.004 131.983 419.724 131.983 419.724C130.258 420.959 119.913 423.17 117.441 428.101L117.431 428.091Z" fill="#A6A6A6" stroke="#263238" stroke-linecap="round" stroke-linejoin="round"/>
<path d="M388.616 432.616C381.626 426.835 352.211 435.99 345.221 438.159C338.231 440.329 273.366 461.286 265.659 462.012C257.942 462.739 218.857 463.818 218.857 463.818L141.725 457.196C141.725 457.196 128.223 447.802 125.813 438.398C123.403 429.004 131.972 419.724 131.972 419.724C130.248 420.959 119.903 423.17 117.431 428.101C114.959 433.031 114.72 440.661 115.219 443.858C115.385 444.937 115.437 446.276 115.437 447.563L115.686 447.792C115.686 447.792 123.403 464.421 136.179 466.829C148.954 469.237 232.38 478.88 253.839 476.71C275.298 474.541 368.362 456.231 368.362 456.231C368.362 456.231 370.294 453.823 373.182 453.096C375.747 452.452 384.721 451.435 388.751 449.878C392.678 441.335 393.654 436.789 388.606 432.616H388.616Z" fill="#D9D9D9" stroke="#263238" stroke-linecap="round" stroke-linejoin="round"/>
<path d="M129.833 464.348C131.775 465.51 133.894 466.393 136.168 466.829C148.58 469.164 227.592 478.319 251.803 476.866C253.548 474.209 258.025 468.033 265.399 462.033C257.215 462.739 218.846 463.818 218.846 463.818L152.704 457.964C143.169 457.3 134.278 452.515 128.846 444.657C128.41 444.034 128.005 443.391 127.631 442.747C128.597 446.473 130.549 454.684 130.31 459.033C130.196 460.995 130.02 462.812 129.822 464.348H129.833Z" fill="#263238" stroke="#263238" stroke-linecap="round" stroke-linejoin="round"/>
<path d="M257.37 469.704C255.854 469.86 253.891 469.963 251.325 469.963C240.741 469.963 141.84 461.608 137.903 460.372C134.631 459.355 131.204 456.127 130.134 455.068C130.31 456.552 130.393 457.923 130.331 459.033C130.331 459.033 132.492 461.597 135.94 462.822C139.066 463.943 236.742 471.541 254.67 472.932C255.449 471.946 256.353 470.856 257.381 469.694L257.37 469.704Z" fill="#BABABA" stroke="#263238" stroke-linecap="round" stroke-linejoin="round"/>
<path d="M388.346 449.868L372.777 453.086L367.957 456.22C367.957 456.22 368.653 461.545 363.533 465.064C358.412 468.583 360.957 470.223 336.963 474.375C312.96 478.537 248.968 499.962 248.968 499.962C248.968 499.962 228.163 523.95 224.33 526.182C220.487 528.424 219.532 528.735 217.932 528.735C216.333 528.735 133.457 518.5 128.97 517.867C124.494 517.224 125.449 519.787 124.494 517.224C123.538 514.67 120.973 473.731 120.017 468.614C119.394 465.292 116.932 458.743 115.052 453.885C114.45 459.179 105.227 503.74 103.232 514.296C105.434 520.13 112.788 526.337 115.53 528.019C118.667 529.949 188.341 543.443 232.224 542.717C276.108 541.99 345.792 539.582 347.236 539.343C348.68 539.105 348.919 539.105 351.578 536.696C354.226 534.288 374.719 478.631 382.686 461.763C384.908 457.061 386.861 453.169 388.377 449.868H388.346Z" fill="#37AFE1"/>
<path d="M385.573 450.532L373.182 453.096L368.362 456.231C368.362 456.231 368.487 459.864 365.672 463.071C361.995 467.265 361.092 469.143 343.923 473.077C341.305 482.97 335.198 507.466 338.002 510.518C341.523 514.359 351.442 523.628 351.442 523.628L385.583 450.522L385.573 450.532Z" fill="#263238" stroke="#263238" stroke-linecap="round" stroke-linejoin="round"/>
<path d="M372.392 477.717L340.069 487.952L369.193 482.513L372.392 477.717Z" fill="#999999" stroke="#263238" stroke-linecap="round" stroke-linejoin="round"/>
<path d="M365.028 494.346L339.072 501.674L362.151 499.142L365.028 494.346Z" fill="#999999" stroke="#263238" stroke-linecap="round" stroke-linejoin="round"/>
<path d="M384.669 450.719L373.182 453.096L372.777 453.21C371.281 453.625 369.941 454.456 368.902 455.618L368.352 456.231C368.352 456.231 368.207 459.864 365.662 463.071C362.203 467.441 361.081 469.144 343.912 473.078C343.538 474.479 343.102 476.171 342.624 478.05C346.883 477.115 367.178 472.392 373.182 466.393C377.835 461.743 382.322 454.653 384.659 450.719H384.669Z" fill="#BABABA" stroke="#263238" stroke-linecap="round" stroke-linejoin="round"/>
<path d="M115.281 460.31C115.281 460.31 118.802 467.981 119.124 473.742C119.446 479.503 120.079 495.166 120.079 495.166L107.283 502.837L115.281 460.3V460.31Z" fill="#263238" stroke="#263238" stroke-linecap="round" stroke-linejoin="round"/>
<path d="M128.721 467.991L126.478 511.795" stroke="white" stroke-linecap="round" stroke-linejoin="round"/>
<path d="M244.564 480.458L220.882 525.548" stroke="white" stroke-linecap="round" stroke-linejoin="round"/>
<path opacity="0.49" d="M226.927 492.156C191.405 491.512 132.46 484.495 132.46 484.495L132.554 487.174L131.276 502.204L130.954 506.044C130.954 506.044 192.537 515.428 218.13 514.463L219.916 510.518L225.359 495.166L226.927 492.156Z" fill="white"/>
<path opacity="0.3" d="M762.702 427.841C762.702 427.841 762.183 413.258 759.867 400.708C756.668 395.061 751.693 389.072 744.079 385.481C726.484 377.166 706.957 398.269 700.881 406.272C694.805 414.264 690.006 413.943 690.006 399.234C690.006 384.526 707.601 371.416 707.601 371.416C707.601 371.416 508.562 433.779 506.318 434.09C504.075 434.412 503.119 446.878 494.799 448.477C486.48 450.075 486.48 429.606 455.444 421.935C424.409 414.264 398.162 458.068 392.729 466.382C387.287 474.697 385.054 471.5 385.054 471.5L381.533 466.382C381.533 466.382 348.254 546.007 343.455 554.322C341.326 558.007 333.744 562.19 325.954 565.709C329.693 565.709 332.248 565.646 333.037 565.48C337.722 564.494 394.391 557.104 394.391 557.104C394.391 557.104 389.956 521.396 393.654 501.456C397.352 481.516 409.172 452.214 420.514 441.626C431.846 431.039 444.663 423.648 462.154 429.803C479.645 435.959 489.751 455.66 489.502 482.253C489.253 508.847 479.157 545.53 479.157 545.53L525.97 535.928L655.564 506.626C655.564 506.626 701.39 501.706 701.39 500.958C701.39 500.211 695.231 473.877 694.244 454.425C693.257 434.973 707.051 407.891 716.908 396.068C726.765 384.245 740.309 386.955 748.442 393.608C756.574 400.251 760.023 423.399 760.023 423.399L762.734 427.831L762.702 427.841Z" fill="black"/>
<path opacity="0.35" d="M669.835 401.466C669.835 401.466 642.955 475.662 640.399 477.572C637.844 479.482 593.036 491.004 593.036 491.004C593.036 491.004 633.991 479.492 638.156 473.098C642.321 466.704 669.835 401.466 669.835 401.466Z" fill="white"/>
<path d="M655.522 506.636C655.522 506.636 701.349 501.716 701.349 500.968C701.349 500.221 695.189 473.887 694.203 454.435C694.203 454.238 694.202 454.03 694.182 453.833C688.209 455.078 677.958 457.445 674.624 459.666C669.825 462.864 660.228 472.143 634.625 481.091C609.021 490.049 508.863 512.106 508.863 512.106L500.543 504.114L487.279 506.501C484.246 526.856 479.105 545.53 479.105 545.53L525.918 535.928L655.512 506.626L655.522 506.636Z" fill="#5E5E5E" stroke="#263238" stroke-linecap="round" stroke-linejoin="round"/>
<path d="M518.159 532.264C520.714 533.219 523.923 532.264 523.923 532.264C523.923 532.264 636.245 506.678 642.321 503.48C648.397 500.283 669.846 463.185 674.644 459.667C669.846 462.864 660.248 472.143 634.645 481.091C609.042 490.049 508.884 512.106 508.884 512.106L500.564 504.114C500.564 504.114 515.604 531.299 518.159 532.254V532.264Z" fill="#263238" stroke="#263238" stroke-linecap="round" stroke-linejoin="round"/>
<path d="M392.189 525.59L354.06 531.029C349.033 542.582 344.909 551.779 343.445 554.322C341.316 558.007 333.733 562.19 325.943 565.709C326.4 565.709 326.837 565.709 327.252 565.709H327.314C328.145 565.709 328.903 565.698 329.579 565.688H329.682C329.973 565.688 330.233 565.677 330.493 565.667H330.648C331.199 565.646 331.666 565.626 332.051 565.594C332.103 565.594 332.144 565.594 332.186 565.584C332.321 565.574 332.445 565.563 332.56 565.553C332.601 565.553 332.643 565.553 332.684 565.542C332.819 565.522 332.933 565.511 333.027 565.491C337.711 564.504 394.381 557.114 394.381 557.114C394.381 557.114 392.48 541.783 392.2 525.59H392.189Z" fill="#263238" stroke="#263238" stroke-linecap="round" stroke-linejoin="round"/>
<path d="M501.748 487.35C501.301 493.246 500.875 496.765 500.875 496.765" stroke="#263238" stroke-linecap="round" stroke-linejoin="round"/>
<path d="M489.035 397.314C489.035 397.314 500.231 412.022 502.153 441.128C503.14 456.044 502.776 470.296 502.195 480.634" stroke="#263238" stroke-linecap="round" stroke-linejoin="round"/>
<path d="M647.514 379.502C650.08 384.028 652.24 390.235 652.24 398.269C652.24 418.095 630.802 471.178 624.716 478.859" stroke="#263238" stroke-linecap="round" stroke-linejoin="round"/>
<path d="M639.122 369.807C639.122 369.807 641.729 371.52 644.616 375.184" stroke="#263238" stroke-linecap="round" stroke-linejoin="round"/>
<path d="M430.984 398.082C436.052 397.044 441.401 396.099 447.052 395.269" stroke="#263238" stroke-linecap="round" stroke-linejoin="round"/>
<path d="M350.923 436.166C350.923 436.166 368.819 412.739 423.09 399.836" stroke="#263238" stroke-linecap="round" stroke-linejoin="round"/>
<path opacity="0.3" d="M203.578 384.017C200.805 384.91 198.343 386 196.411 387.339C183.303 396.473 154.304 429.419 149.941 437.35C149.941 437.35 182.119 409.168 199.984 399.639C217.86 390.11 246.776 380.571 246.776 380.571C245.883 380.799 220.238 381.63 203.567 384.017H203.578Z" fill="black"/>
<path opacity="0.61" d="M274.259 450.055C274.259 450.055 344.961 402.026 412.09 397.262C412.09 397.262 374.355 398.456 330.659 413.143C286.962 427.831 274.259 450.055 274.259 450.055Z" fill="white"/>
<path opacity="0.3" d="M343.922 473.077C342.988 473.555 340.64 473.814 337.358 474.385C313.355 478.548 249.362 499.972 249.362 499.972C249.362 499.972 228.558 523.96 224.725 526.192C220.892 528.424 219.926 528.745 218.327 528.745C216.727 528.745 133.852 518.511 129.365 517.877C124.888 517.234 125.844 519.798 124.888 517.234C123.933 514.68 121.367 473.742 120.412 468.624C119.789 465.303 117.005 457.788 115.125 452.94C114.845 454.31 113.972 458.649 112.798 464.441L120.183 526.14L217.538 539.271L336.641 506.127L343.933 473.077H343.922Z" fill="black"/>
<path opacity="0.24" d="M436 318.519C381.304 316.308 361.59 321.716 361.59 321.716C361.59 321.716 353.458 325.163 340.651 331.318C327.844 337.473 264.516 376.627 262.792 378.837C261.068 381.048 262.543 382.533 264.516 383.27C264.922 383.425 270.624 383.841 279.473 384.422C342.178 368.125 448.496 340.504 513.942 323.512C504.251 322.235 478.316 320.222 436 318.509V318.519Z" fill="white" stroke="#263238" stroke-linecap="round" stroke-linejoin="round"/>
<path d="M304.869 543.89L258.471 562.709L323.7 563.716C323.7 563.716 338.158 557.664 340.848 554.643C343.538 551.623 346.903 542.883 346.903 542.883L304.879 543.89H304.869Z" fill="#263238" stroke="#263238" stroke-linecap="round" stroke-linejoin="round"/>
<path opacity="0.24" d="M207.296 415.022C207.296 415.022 191.623 419.122 180.53 429.72C172.688 437.214 168.959 444.221 169.572 448.197L261.11 418.655C245.01 416.558 216.447 413.808 207.296 415.022Z" fill="white" stroke="#263238" stroke-linecap="round" stroke-linejoin="round"/>
<path d="M375.508 450.19C375.508 450.19 380.525 441.719 372.683 439.529C364.841 437.339 282.008 460.85 282.008 460.85L342.873 441.097C342.873 441.097 379.268 431.059 385.23 433.26C391.192 435.45 390.881 440.474 386.799 448.622L375.498 450.19H375.508Z" fill="white"/>
<path d="M368.923 441.097C368.923 441.097 351.983 443.609 350.414 445.176C348.846 446.743 348.223 454.58 350.414 455.213C352.606 455.836 361.704 455.836 365.475 454.269C369.245 452.701 370.492 449.878 370.492 447.688C370.492 445.498 370.492 440.162 368.923 441.107V441.097Z" fill="white"/>
<path d="M119.165 430.125L122.925 453.013L115.198 443.847C115.198 443.847 119.134 451.508 122.375 455.483C125.626 459.449 128.867 462.697 128.867 462.697C128.867 462.697 128.326 456.023 127.963 451.342C127.599 446.65 122.915 436.561 123.632 431.869C124.348 427.177 127.059 423.399 127.059 423.399C127.059 423.399 118.625 425.329 119.145 430.135L119.165 430.125Z" fill="white"/>
<path d="M343.923 473.077C343.923 473.077 327.979 476.212 315.837 479.316" stroke="#263238" stroke-linecap="round" stroke-linejoin="round"/>
<path d="M301.711 483.26L249.352 499.962C249.352 499.962 224.611 528.974 220.373 528.694" stroke="#263238" stroke-linecap="round" stroke-linejoin="round"/>
<path d="M132.284 517.691L210.506 527.572" stroke="#263238" stroke-linecap="round" stroke-linejoin="round"/>
<path d="M116.455 456.127C116.455 456.127 119.674 465.261 120.401 468.624C121.129 471.988 124.245 512.086 124.245 512.086" stroke="#263238" stroke-linecap="round" stroke-linejoin="round"/>
<path d="M373.691 317.253C368.092 318.26 362.681 320.045 357.55 322.505C353.987 324.218 348.617 326.616 340.64 329.844C321.176 337.722 264.755 375.153 259.832 377.114C254.909 379.076 247.763 380.311 246.776 380.561C245.789 380.81 214.993 381.796 198.977 384.744C182.96 387.702 165.22 397.303 156.111 402.473C147.002 407.642 133.686 418.479 131.962 419.704C130.238 420.939 119.893 423.15 117.421 428.08C114.949 433.011 114.71 440.64 115.208 443.837C115.707 447.034 115.208 452.452 115.208 452.452C115.208 452.452 102.89 513.269 102.152 516.466C101.415 519.663 96.2422 530.998 98.2053 533.458C100.179 535.918 106.338 541.087 113.972 542.322C121.606 543.558 144.769 541.835 144.769 541.835L219.179 551.187C219.179 551.187 241.105 563.01 250.962 563.498C260.819 563.986 328.322 566.456 333.006 565.47C337.691 564.484 394.36 557.093 394.36 557.093C394.36 557.093 389.925 521.386 393.623 501.446C397.321 481.506 409.141 452.203 420.483 441.616C431.815 431.028 444.632 423.638 462.123 429.793C479.614 435.948 489.72 455.649 489.471 482.243C489.222 508.837 479.126 545.519 479.126 545.519L525.939 535.918L655.533 506.615C655.533 506.615 701.359 501.695 701.359 500.948C701.359 500.2 695.2 473.866 694.213 454.414C693.226 434.962 707.02 407.881 716.877 396.058C726.734 384.235 740.278 386.944 748.411 393.598C756.543 400.241 759.992 423.388 759.992 423.388L762.703 427.821C762.703 427.821 761.965 406.895 758.268 393.598C754.57 380.301 751.371 368.727 742.989 360.112C734.607 351.497 724.511 349.524 717.365 349.275C710.219 349.026 694.94 345.829 692.977 345.092C691.004 344.355 590.232 318.748 590.232 318.748C590.232 318.748 541.944 308.409 482.315 308.897C426.393 309.354 419.455 308.959 373.691 317.232V317.253Z" stroke="#263238" stroke-linecap="round" stroke-linejoin="round"/>
</svg>
